<svg xmlns="http://www.w3.org/2000/svg" xmlns:xlink="http://www.w3.org/1999/xlink" width="46.378" height="54.285" viewBox="0 0 46.378 54.285">
  <defs>
    <filter id="Path_5211" x="0" y="0" width="46.378" height="54.285" filterUnits="userSpaceOnUse">
      <feOffset dy="5" input="SourceAlpha"/>
      <feGaussianBlur stdDeviation="3" result="blur"/>
      <feFlood flood-color="#b9b9b9"/>
      <feComposite operator="in" in2="blur"/>
      <feComposite in="SourceGraphic"/>
    </filter>
  </defs>
  <g id="Group_4022" data-name="Group 4022" transform="translate(7.226 3.039)">
    <g transform="matrix(1, 0, 0, 1, -7.23, -3.04)" filter="url(#Path_5211)">
      <path id="Path_5211-2" data-name="Path 5211" d="M0,.354,19.133-.458l9.245,9.151V35.827H0Z" transform="translate(9 4.46)" fill="#fff"/>
    </g>
    <g id="Group_4024" data-name="Group 4024">
      <path id="Path_2639" data-name="Path 2639" d="M563.846,108.826a1.1,1.1,0,0,0-.12-.5l0,0c-.013-.026-.027-.05-.042-.075l-.016-.026c-.011-.016-.022-.032-.034-.048s-.023-.032-.035-.047l-.017-.02c-.014-.016-.027-.033-.042-.049l0,0-9.01-9.252-.014-.015a1.106,1.106,0,0,0-.781-.323H535.819a3.369,3.369,0,0,0-3.364,3.364v31.911a3.365,3.365,0,0,0,3.364,3.364h24.664a3.364,3.364,0,0,0,3.364-3.358V108.826Zm-2.555,25.732a1.138,1.138,0,0,1-.809.338H535.819a1.138,1.138,0,0,1-.809-.338,1.152,1.152,0,0,1-.338-.816V101.831a1.151,1.151,0,0,1,1.147-1.148h16.8v8.147a1.109,1.109,0,0,0,1.111,1.106h7.9v23.805A1.151,1.151,0,0,1,561.292,134.558Zm-6.455-26.838V102.3l5.275,5.417Z" transform="translate(-532.455 -98.467)" fill="#2c2f73"/>
      <path id="Path_5576" data-name="Path 5576" d="M13.924,6.472a.611.611,0,0,0-.865,0L7.444,12.088h0a3.058,3.058,0,0,1-4.324,0h0a3.058,3.058,0,0,1,0-4.324L8.735,2.147h0A1.835,1.835,0,0,1,11.33,4.742L5.708,10.358h0a.612.612,0,1,1-.865-.865h0l5.188-5.182a.611.611,0,0,0-.863-.865L3.979,8.629h0a1.834,1.834,0,0,0,0,2.594h0a1.835,1.835,0,0,0,2.594,0h0l5.622-5.617h0a3.058,3.058,0,0,0,0-4.323h0a3.057,3.057,0,0,0-4.323,0h0L2.255,6.9h0a4.28,4.28,0,0,0,0,6.052h0a4.281,4.281,0,0,0,6.052,0h0l5.617-5.616A.612.612,0,0,0,13.924,6.472Z" transform="translate(8.56 14.13)" fill="#4ec2c9"/>
    </g>
  </g>
</svg>
