<svg id="Group_3463" data-name="Group 3463" xmlns="http://www.w3.org/2000/svg" width="193.159" height="54.199" viewBox="0 0 193.159 54.199">
  <g id="Group_34" data-name="Group 34" transform="translate(121.307)">
    <rect id="Rectangle_11" data-name="Rectangle 11" width="14.979" height="0.732" transform="translate(27.267 30.762)" fill="#babcbe"/>
    <rect id="Rectangle_12" data-name="Rectangle 12" width="15.812" height="0.732" transform="translate(28.931 34.24)" fill="#babcbe"/>
    <rect id="Rectangle_13" data-name="Rectangle 13" width="14.355" height="0.916" transform="translate(32.049 37.536)" fill="#babcbe"/>
    <path id="Path_1083" data-name="Path 1083" d="M809.486,107.733s2.078,5.859-16.852,18.126c0,0-5.827,4.395-6.032,10.8l-.21,4.76a8.673,8.673,0,0,0,3.125,4.943,88.088,88.088,0,0,0,8.945,6.409s6.032,3.3,6.032,7.508c0,0,.829-7.873-1.874-10.072,0,0-1.454-1.831-8.11-6.225,0,0-6.242-4.028-7.281-6.226,0,0,1.453-3.112,9.774-8.422,0,0,14.773-6.409,12.485-21.606" transform="translate(-759.96 -106.084)" fill="#4ec2c9"/>
    <path id="Path_1084" data-name="Path 1084" d="M807.422,144.71s.415-3.661-5.617-8.79c0,0-12.485-8.056-13.313-9.338,0,0-4.991-3.844-3.742-14.465,0,0,.829,6.409,8.945,10.8,0,0,2.907,1.647,8.946,6.042,0,0,5.2,3.3,4.781,11.719Z" transform="translate(-760.811 -104.061)" fill="#2c2f73"/>
    <path id="Path_1085" data-name="Path 1085" d="M768.732,137.332c9.155,5.494,77.813-22.154,70.946-26.367-3.953-2.562-22.055,2.564-22.055,2.564a3.815,3.815,0,0,1-.415,1.465s14.149-3.479,17.477-1.465c6.446,3.845-53.47,26-60.962,21.241-2.907-1.831,16.023-10.621,16.023-10.621s-24.968,10.8-21.015,13.183" transform="translate(-768.308 -104.923)" fill="#babcbe"/>
    <path id="Path_1086" data-name="Path 1086" d="M789.533,109.9a3.552,3.552,0,0,1-3.742,3.48,3.743,3.743,0,0,1-3.954-3.48c0-1.831,1.874-3.3,3.954-3.3a3.525,3.525,0,0,1,3.742,3.3" transform="translate(-762.062 -106.605)" fill="#2c2f73"/>
  </g>
  <g id="Group_35" data-name="Group 35" transform="translate(0 38.452)">
    <path id="Path_1087" data-name="Path 1087" d="M685.31,139.428h.832l2.7,4.028v-4.028h.624v4.761h-.832l-2.7-3.845v3.845h-.624Z" transform="translate(-685.31 -129.907)" fill="#2c2f73"/>
    <path id="Path_1088" data-name="Path 1088" d="M690.665,139.428h.623l1.874,4.76h-.624l-.625-1.1h-2.08l-.624,1.1h-.624Zm1.039,3.113-.832-2.2-.832,2.2Z" transform="translate(-683.799 -129.907)" fill="#2c2f73"/>
    <path id="Path_1089" data-name="Path 1089" d="M693.314,140.16h-1.456v-.732H695.6v.732h-1.665v4.029h-.624Z" transform="translate(-682.288 -129.907)" fill="#2c2f73"/>
    <rect id="Rectangle_14" data-name="Rectangle 14" width="0.624" height="4.761" transform="translate(13.94 9.521)" fill="#2c2f73"/>
    <path id="Path_1090" data-name="Path 1090" d="M698.34,144.372a10.015,10.015,0,0,0-1.041-.184l-.624-.548c-.208-.184-.417-.55-.624-.734,0-.365-.208-.732-.208-1.1s.208-.55.208-.915a2.6,2.6,0,0,1,.624-.734c.207-.365.416-.548.624-.548a2.524,2.524,0,0,1,1.041-.184,1.728,1.728,0,0,1,1.041.184,1.121,1.121,0,0,1,.832.548.924.924,0,0,1,.415.734,1.475,1.475,0,0,1,.209.915,2.063,2.063,0,0,1-.209,1.1,1.335,1.335,0,0,1-.415.734c-.209.183-.624.365-.832.548a10.09,10.09,0,0,1-1.041.184m0-.55c.416,0,.624-.183.832-.183l.417-.367a1.332,1.332,0,0,0,.415-.732c.209-.183.209-.367.209-.732a1,1,0,0,0-.209-.732c0-.183-.208-.367-.415-.55a.424.424,0,0,0-.417-.367c-.208-.183-.415-.183-.832-.183a.834.834,0,0,0-.624.183,1.125,1.125,0,0,0-.624.367c-.209.183-.209.367-.416.55v1.465c.207.183.207.55.416.732a1.125,1.125,0,0,1,.624.367c.208,0,.417.183.624.183" transform="translate(-680.448 -129.907)" fill="#2c2f73"/>
    <path id="Path_1091" data-name="Path 1091" d="M699.972,139.428h.832l2.5,4.028v-4.028h.624v4.761h-.832l-2.5-3.845v3.845h-.624Z" transform="translate(-678.543 -129.907)" fill="#2c2f73"/>
    <path id="Path_1092" data-name="Path 1092" d="M705.184,139.428h.624l2.08,4.76h-.832l-.417-1.1h-2.287l-.417,1.1H703.1Zm1.248,3.113-.833-2.2-1.039,2.2Z" transform="translate(-677.097 -129.907)" fill="#2c2f73"/>
    <path id="Path_1093" data-name="Path 1093" d="M706.8,139.428h.624v4.212h2.08v.549h-2.7Z" transform="translate(-675.389 -129.907)" fill="#2c2f73"/>
    <path id="Path_1094" data-name="Path 1094" d="M710.505,139.428h.624v2.015h2.288v-2.015h.833v4.761h-.833v-2.2H711.13v2.2h-.624Z" transform="translate(-673.681 -129.907)" fill="#2c2f73"/>
    <path id="Path_1095" data-name="Path 1095" d="M713.779,139.428h3.12v.732h-2.5v1.282h2.288v.732H714.4v1.465h2.7v.549h-3.329Z" transform="translate(-672.169 -129.907)" fill="#2c2f73"/>
    <path id="Path_1096" data-name="Path 1096" d="M718.28,139.428h.624l2.08,4.76h-.832l-.416-1.1h-2.289l-.417,1.1H716.2Zm1.248,3.113-1.041-2.2-.833,2.2Z" transform="translate(-671.053 -129.907)" fill="#2c2f73"/>
    <path id="Path_1097" data-name="Path 1097" d="M719.9,139.428h.624v4.212h2.081v.549h-2.7Z" transform="translate(-669.344 -129.907)" fill="#2c2f73"/>
    <path id="Path_1098" data-name="Path 1098" d="M723.349,140.16h-1.456v-.732h3.745v.732h-1.664v4.029h-.624Z" transform="translate(-668.424 -129.907)" fill="#2c2f73"/>
    <path id="Path_1099" data-name="Path 1099" d="M724.882,139.428h.624v2.015H728v-2.015h.624v4.761H728v-2.2h-2.5v2.2h-.624Z" transform="translate(-667.045 -129.907)" fill="#2c2f73"/>
    <rect id="Rectangle_15" data-name="Rectangle 15" width="0.624" height="4.761" transform="translate(64.703 9.521)" fill="#2c2f73"/>
    <path id="Path_1100" data-name="Path 1100" d="M730.861,139.428h.832l2.5,4.028v-4.028h.626v4.761h-.626l-2.7-3.845v3.845h-.624Z" transform="translate(-664.285 -129.907)" fill="#2c2f73"/>
    <path id="Path_1101" data-name="Path 1101" d="M734.421,139.428h3.118v.732h-2.5v1.465h2.289v.549h-2.289v2.014h-.618Z" transform="translate(-662.642 -129.907)" fill="#2c2f73"/>
    <path id="Path_1102" data-name="Path 1102" d="M739.337,144.372c-.414,0-.625-.184-1.039-.184-.21-.183-.421-.365-.625-.548s-.414-.55-.624-.734c0-.365-.21-.732-.21-1.1s.21-.55.21-.915a2.606,2.606,0,0,1,.624-.734c.2-.365.415-.548.625-.548a2.081,2.081,0,0,1,1.039-.184,1.73,1.73,0,0,1,1.039.184,1.125,1.125,0,0,1,.836.548.935.935,0,0,1,.414.734,1.5,1.5,0,0,1,.2.915,2.1,2.1,0,0,1-.2,1.1,1.359,1.359,0,0,1-.414.734c-.21.183-.626.365-.836.548a10.269,10.269,0,0,1-1.039.184m0-.55c.414,0,.626-.183.829-.183l.421-.367a1.349,1.349,0,0,0,.415-.732c.21-.183.21-.367.21-.732a.992.992,0,0,0-.21-.732c0-.183-.21-.367-.415-.55a.427.427,0,0,0-.421-.367c-.2-.183-.415-.183-.829-.183a.839.839,0,0,0-.625.183,1.129,1.129,0,0,0-.624.367c-.21.183-.21.367-.415.55v1.465c.2.183.2.55.415.732a1.121,1.121,0,0,1,.624.367c.212,0,.415.183.625.183" transform="translate(-661.526 -129.907)" fill="#2c2f73"/>
    <path id="Path_1103" data-name="Path 1103" d="M740.969,139.428h1.665c.2,0,.414.184.618.184a.426.426,0,0,1,.421.365c.2,0,.2.183.414.367v.55a.534.534,0,0,1-.21.365c0,.183,0,.183-.2.367,0,.183-.211.183-.211.365h-.625l1.462,2.2h-.836l-1.25-2.014h-.625v2.014h-.618Zm.618,2.2h1.046a.673.673,0,0,1,.414-.184.187.187,0,0,0,.2-.183.618.618,0,0,1,.21-.365c0-.184-.21-.367-.21-.55a.187.187,0,0,0-.2-.184h-.414c0-.183-.21-.183-.21-.183h-.836Z" transform="translate(-659.619 -129.907)" fill="#2c2f73"/>
    <path id="Path_1104" data-name="Path 1104" d="M743.674,139.428h1.039l1.453,3.662,1.453-3.662h1.046v4.761h-.625v-3.845l-1.664,3.845h-.421l-1.664-3.845v3.845h-.618Z" transform="translate(-658.371 -129.907)" fill="#2c2f73"/>
    <path id="Path_1105" data-name="Path 1105" d="M749.6,139.428h.415l2.078,4.76h-.626l-.617-1.1h-2.29l-.421,1.1h-.618Zm1.039,3.113-.835-2.2-1.039,2.2Z" transform="translate(-656.597 -129.907)" fill="#2c2f73"/>
    <path id="Path_1106" data-name="Path 1106" d="M752.309,140.16h-1.664v-.732h3.75v.732h-1.461v4.029h-.625Z" transform="translate(-655.153 -129.907)" fill="#2c2f73"/>
    <rect id="Rectangle_16" data-name="Rectangle 16" width="0.624" height="4.761" transform="translate(100.07 9.521)" fill="#2c2f73"/>
    <path id="Path_1107" data-name="Path 1107" d="M757.269,144.372c-.414,0-.625-.184-1.039-.184-.21-.183-.626-.365-.829-.548s-.21-.55-.421-.734a2.1,2.1,0,0,1-.2-1.1,1.5,1.5,0,0,1,.2-.915c.211-.367.211-.55.421-.734a1.1,1.1,0,0,1,.829-.548,3.024,3.024,0,0,1,2.078,0c.211,0,.421.183.836.548.2.184.2.367.414.734a1.466,1.466,0,0,1,.211.915,2.051,2.051,0,0,1-.211,1.1c-.21.184-.21.55-.414.734a2.944,2.944,0,0,0-.836.548c-.414,0-.625.184-1.039.184m0-.55c.211,0,.414-.183.836-.183.2-.184.2-.367.414-.367a1.313,1.313,0,0,0,.415-.732c0-.183.211-.367.211-.732,0-.183-.211-.55-.211-.732s-.2-.367-.415-.55-.211-.367-.414-.367a1.774,1.774,0,0,0-.836-.183,1.377,1.377,0,0,0-.829.183.428.428,0,0,0-.421.367c-.2.183-.415.367-.415.55s-.2.55-.2.732c0,.365.2.55.2.732a1.359,1.359,0,0,0,.415.732l.421.367c.2,0,.626.183.829.183" transform="translate(-653.247 -129.907)" fill="#2c2f73"/>
    <path id="Path_1108" data-name="Path 1108" d="M758.759,139.428h.836l2.7,4.028v-4.028h.625v4.761h-.836l-2.7-3.845v3.845h-.625Z" transform="translate(-651.408 -129.907)" fill="#2c2f73"/>
    <path id="Path_1109" data-name="Path 1109" d="M767.2,140.527a1.105,1.105,0,0,0-.624-.367.823.823,0,0,0-.618-.183.831.831,0,0,0-.626.183,1.107,1.107,0,0,0-.624.367c-.21.183-.21.367-.415.55v1.465c.2.365.2.55.415.732a1.144,1.144,0,0,1,.624.367c.2,0,.415.183.626.183.414,0,.618-.183.829-.183.211-.184.414-.367.414-.55l.626.365c0,.184-.2.184-.2.184l-.421.365c-.2,0-.2.183-.414.183a1.379,1.379,0,0,1-.829.184c-.421,0-.626-.184-1.046-.184-.2-.183-.414-.365-.618-.548-.211-.367-.421-.55-.624-.916a7.036,7.036,0,0,1-.21-.915c0-.367.21-.55.21-.915a2.493,2.493,0,0,1,.624-.734.862.862,0,0,1,.829-.548,1.39,1.39,0,0,1,.836-.184,2.094,2.094,0,0,1,1.039.184c.2,0,.414.183.624.548Z" transform="translate(-649.239 -129.907)" fill="#2c2f73"/>
    <path id="Path_1110" data-name="Path 1110" d="M767.018,139.428h2.914v.732h-2.289v1.282h2.078v.732h-2.078v1.465h2.493v.549h-3.118Z" transform="translate(-647.596 -129.907)" fill="#2c2f73"/>
    <path id="Path_1111" data-name="Path 1111" d="M769.722,139.428h.829l2.7,4.028v-4.028h.625v4.761h-.829l-2.7-3.845v3.845h-.625Z" transform="translate(-646.348 -129.907)" fill="#2c2f73"/>
    <path id="Path_1112" data-name="Path 1112" d="M774.658,140.16h-1.664v-.732h3.749v.732h-1.46v4.029h-.625Z" transform="translate(-644.838 -129.907)" fill="#2c2f73"/>
    <path id="Path_1113" data-name="Path 1113" d="M775.982,139.428h3.125v.732h-2.5v1.282H778.9v.732h-2.289v1.465h2.711v.549h-3.335Z" transform="translate(-643.458 -129.907)" fill="#2c2f73"/>
    <path id="Path_1114" data-name="Path 1114" d="M778.831,139.428h1.663c.212,0,.626.184.836.184s.2.183.415.365a.622.622,0,0,1,.2.367v.915c0,.183-.2.183-.2.367-.211.183-.211.183-.415.365h-.421l1.25,2.2h-.829l-1.047-2.014h-.829v2.014h-.624Zm.624,2.2h1.251l.2-.184c.211,0,.211-.183.421-.183v-.915c-.211,0-.211-.184-.421-.184h-.2c-.212-.183-.212-.183-.422-.183h-.829Z" transform="translate(-642.144 -129.907)" fill="#2c2f73"/>
    <rect id="Rectangle_17" data-name="Rectangle 17" width="0.832" height="0.916" transform="translate(2.289 0.183)" fill="#4ec2c9"/>
    <rect id="Rectangle_18" data-name="Rectangle 18" width="0.832" height="0.916" transform="translate(1.041 0.183)" fill="#4ec2c9"/>
    <rect id="Rectangle_19" data-name="Rectangle 19" width="0.832" height="0.732" transform="translate(6.658 6.225)" fill="#4ec2c9"/>
    <rect id="Rectangle_20" data-name="Rectangle 20" width="0.832" height="0.732" transform="translate(5.41 6.225)" fill="#4ec2c9"/>
    <path id="Path_1115" data-name="Path 1115" d="M687.6,137.125a1.126,1.126,0,0,1-.624.365c-.208,0-.417-.183-.624-.183a1.245,1.245,0,0,1-.209-.732c0-1.1.833-1.1,1.665-1.1h.209A2.228,2.228,0,0,1,687.6,137.125Zm19.557-.367a1.342,1.342,0,0,1-1.457,1.1h-3.121a2.583,2.583,0,0,1,2.911-2.564A1.551,1.551,0,0,1,707.156,136.758Zm3.744.184a.93.93,0,0,1-1.04.915h-2.289a2.388,2.388,0,0,0,.417-1.1c0-1.464-1.248-2.014-2.5-2.014a3.514,3.514,0,0,0-2.911,1.282l.208-.732h-.832v2.564h-2.5v-.367c0-1.465-.624-2.929-2.705-2.929a1.95,1.95,0,0,0-2.08,1.464v.184h.624l.207-.184c0-.548.417-.732,1.248-.732.624,0,1.041,0,1.248.367a2.628,2.628,0,0,1,.833,1.83l-.209.367H693.84c-1.041,0-1.041-.732-1.041-1.1v-1.83h-.832v2.014a.929.929,0,0,1-1.041.915h-1.039a.93.93,0,0,1-1.041-.915V134.2l-.832.365v.183a3.021,3.021,0,0,0-2.081.55,1.576,1.576,0,0,0-.624,1.282,2.388,2.388,0,0,0,.417,1.1,3.8,3.8,0,0,0,1.041.365,2.01,2.01,0,0,0,1.456-.55,1.376,1.376,0,0,0,1.456.916h1.457a1.313,1.313,0,0,0,1.248-.55,2.2,2.2,0,0,0,1.665.55h16.019a1.287,1.287,0,0,0,1.457-1.465v-4.028H710.9Z" transform="translate(-685.31 -132.914)" fill="#4ec2c9"/>
    <rect id="Rectangle_21" data-name="Rectangle 21" width="0.624" height="5.493" transform="translate(27.463)" fill="#4ec2c9"/>
    <rect id="Rectangle_22" data-name="Rectangle 22" width="0.832" height="0.732" transform="translate(33.08 2.014)" fill="#4ec2c9"/>
    <path id="Path_1116" data-name="Path 1116" d="M712.476,136.422a.929.929,0,0,1-1.039.915h-3.122a1.377,1.377,0,0,1-1.456-.915,1,1,0,0,1,.208-.732l.209-.184h-.209l-.208-.183-.208-.183v.183a1.6,1.6,0,0,0-.417,1.282,2.061,2.061,0,0,0,2.08,1.282h3.329c1.039,0,1.665-.55,1.665-1.465v-2.381h-.833Z" transform="translate(-675.652 -132.393)" fill="#4ec2c9"/>
    <rect id="Rectangle_23" data-name="Rectangle 23" width="0.832" height="0.732" transform="translate(34.328 2.014)" fill="#4ec2c9"/>
    <path id="Path_1117" data-name="Path 1117" d="M717.612,137.857a1.322,1.322,0,0,1-1.248-1.464,1.268,1.268,0,0,1,1.248-1.282,1.44,1.44,0,0,1,1.456,1.282A1.364,1.364,0,0,1,717.612,137.857Zm0-3.479a2.111,2.111,0,0,0-2.08,2.014v.55c0,.548-.209.915-.833.915h-1.248c-.624,0-.832-.367-.832-.915v-4.028h-.833v4.028c0,.915.626,1.465,1.665,1.465H714.7c.833,0,1.248-.184,1.457-.55a2.188,2.188,0,0,0,1.456.732,2.021,2.021,0,0,0,2.08-2.2A1.973,1.973,0,0,0,717.612,134.379Z" transform="translate(-673.089 -132.914)" fill="#4ec2c9"/>
    <path id="Path_1118" data-name="Path 1118" d="M719.988,137.857a1.282,1.282,0,0,1,0-2.564h1.039v2.564Zm11.65-1.831c-.208.184-.624,1.1-1.456,1.465a2.966,2.966,0,0,1-1.457-1.465,1.59,1.59,0,0,1,1.457-1.1A1.8,1.8,0,0,1,731.638,136.026Zm4.785-.365a1.145,1.145,0,0,1,1.248,1.282c0,.548-.208,1.465-1.248,1.465s-1.248-.916-1.248-1.465A1.269,1.269,0,0,1,736.424,135.66ZM746,136.942a.934.934,0,0,1-1.047.915h-1.242c-.836,0-1.25-.367-1.25-1.1v-3.844h-.626v4.028a.928.928,0,0,1-1.039.915h-1.25c-.624,0-.832-.367-1.041-.915a1.973,1.973,0,0,0-2.08-2.014,2.11,2.11,0,0,0-2.08,2.014c0,.915-1.041.915-1.041.915h-2.5a5.786,5.786,0,0,0,1.663-1.647h0a2.345,2.345,0,0,0-4.576,0h0a4.565,4.565,0,0,0,1.456,1.647h-2.7q-1.25,0-1.248-1.1v-3.844h-.626v4.028a.928.928,0,0,1-1.039.915h-1.872v-3.3h-1.872a2.113,2.113,0,0,0-2.081,2.014,1.977,1.977,0,0,0,2.081,1.831h1.039a.756.756,0,0,1-.208.55,1.67,1.67,0,0,1-.832.365c-.209-.183-.624-.183-.833-.365h-.415l.208.732h0a10.079,10.079,0,0,0,1.04.183h.208a1.713,1.713,0,0,0,1.041-.365,1.08,1.08,0,0,0,.624-1.1h2.08a1.311,1.311,0,0,0,1.248-.55,2.024,2.024,0,0,0,1.457.55h2.287a4.327,4.327,0,0,1,2.5,0h2.08a1.3,1.3,0,0,0,1.041-.367,2.025,2.025,0,0,0,1.872,1.1,1.971,1.971,0,0,0,1.872-1.282,2.024,2.024,0,0,0,1.457.55h1.041c.829,0,1.25-.184,1.454-.55a1.731,1.731,0,0,0,1.46.55h1.453c1.039,0,1.665-.55,1.665-1.465v-4.028H746Z" transform="translate(-670.264 -132.914)" fill="#4ec2c9"/>
    <rect id="Rectangle_24" data-name="Rectangle 24" width="0.832" height="0.732" transform="translate(81.35 7.69)" fill="#4ec2c9"/>
    <rect id="Rectangle_25" data-name="Rectangle 25" width="0.832" height="0.732" transform="translate(82.593 7.69)" fill="#4ec2c9"/>
    <rect id="Rectangle_26" data-name="Rectangle 26" width="1.04" height="0.916" transform="translate(89.671 0.183)" fill="#4ec2c9"/>
    <path id="Path_1119" data-name="Path 1119" d="M757.564,137.857h-3.328a2.96,2.96,0,0,1,3.125-2.564c.415,0,1.665.367,1.665,1.464A1.344,1.344,0,0,1,757.564,137.857Zm-.414-3.113a3.388,3.388,0,0,0-2.7,1.282v-3.112h-.835v4.943h-1.454a1.1,1.1,0,0,1-1.25-1.1v-1.83h-.624v2.014a.928.928,0,0,1-1.039.915h-1.251a.932.932,0,0,1-1.039-.915v-.55c0-.915-.624-1.464-1.663-1.464h-.829a1.312,1.312,0,0,0-1.25.55c0,.183,0,.732.829,1.28s1.46.732,1.46,1.464-.836,1.1-1.665,1.1h-2.078a1.516,1.516,0,0,1-1.663-1.282c-.211-.183-.211-.55,0-.915h.2l-.2-.183a.19.19,0,0,1-.211-.184l-.21-.183v.183a1.805,1.805,0,0,0-.415,1.282,2.256,2.256,0,0,0,2.5,1.831h2.078a3.18,3.18,0,0,0,1.875-.55,1.247,1.247,0,0,0,.415-1.1c0-1.1-.836-1.647-1.665-2.013-.421-.184-.625-.367-.421-.55,0-.183.211-.183.421-.183h.829a.928.928,0,0,1,1.039.915v.55a1.29,1.29,0,0,0,1.46,1.465h1.665a1.317,1.317,0,0,0,1.25-.55,2.008,2.008,0,0,0,1.453.55h5.406c1.251,0,2.086-.732,2.086-1.649C759.65,135.293,758.4,134.744,757.15,134.744Z" transform="translate(-660.409 -132.914)" fill="#4ec2c9"/>
    <path id="Path_1120" data-name="Path 1120" d="M756,137.857a1.282,1.282,0,0,1,0-2.564h1.039v2.564Zm4.79-.915a.934.934,0,0,1-1.046.915h-1.868v-3.3H756a2.109,2.109,0,0,0-2.078,2.014A1.975,1.975,0,0,0,756,138.407h1.039a.764.764,0,0,1-.2.55,1.678,1.678,0,0,1-.836.365c-.2-.183-.624-.183-.829-.365h-.421l.211.732h0a10.344,10.344,0,0,0,1.039.183h.212a1.723,1.723,0,0,0,1.039-.365,1.084,1.084,0,0,0,.624-1.1h2.078c1.039,0,1.665-.55,1.665-1.465v-4.028h-.829Z" transform="translate(-653.641 -132.914)" fill="#4ec2c9"/>
    <rect id="Rectangle_27" data-name="Rectangle 27" width="0.832" height="5.493" transform="translate(109.015)" fill="#4ec2c9"/>
    <rect id="Rectangle_28" data-name="Rectangle 28" width="0.832" height="0.916" transform="translate(114.429 0.183)" fill="#4ec2c9"/>
    <path id="Path_1121" data-name="Path 1121" d="M771.542,134.561h-3.125a2.125,2.125,0,0,1,1.874-1.1h1.041v-.55h-1.251a2.54,2.54,0,0,0-2.492,2.2v.183h3.953a1.292,1.292,0,1,1,0,2.564h-5.413a1.039,1.039,0,0,1-1.039-1.1v-1.83h-.829v3.479a.932.932,0,0,1-1.039.915c-.211,0-.422-.183-.836-.365h-.21v.732h0a10.1,10.1,0,0,0,1.047.183h0a1.3,1.3,0,0,0,1.242-.55.991.991,0,0,0,.625-.915v-.367a1.917,1.917,0,0,0,1.25.367h5.2a2.052,2.052,0,0,0,2.289-1.831A2.171,2.171,0,0,0,771.542,134.561Z" transform="translate(-649.831 -132.914)" fill="#4ec2c9"/>
    <path id="Path_1122" data-name="Path 1122" d="M778.13,135.66a1.147,1.147,0,0,1,1.25,1.282,1.251,1.251,0,1,1-1.25-1.282Zm5.414,1.282a.935.935,0,0,1-1.047.915h-1.244c-.624,0-.835-.367-1.045-.915a1.969,1.969,0,0,0-2.078-2.014,2.107,2.107,0,0,0-2.078,2.014.9.9,0,0,1-1.039.915h-.626a1.034,1.034,0,0,1-1.039-1.1v-1.83h-.836v3.479a.927.927,0,0,1-1.039.915,1.639,1.639,0,0,1-.829-.365h-.211v.732h0a10.356,10.356,0,0,0,1.039.183h0a1.564,1.564,0,0,0,1.25-.55,1,1,0,0,0,.625-.915v-.367a1.9,1.9,0,0,0,1.242.367h.626a1.323,1.323,0,0,0,1.046-.367,2.018,2.018,0,0,0,1.868,1.1A1.973,1.973,0,0,0,780,137.857a2.012,2.012,0,0,0,1.454.55h1.25c1.039,0,1.663-.55,1.663-1.465v-4.028h-.827Z" transform="translate(-646.02 -132.914)" fill="#4ec2c9"/>
    <rect id="Rectangle_29" data-name="Rectangle 29" width="0.624" height="5.493" transform="translate(139.391)" fill="#4ec2c9"/>
  </g>
</svg>
