<svg xmlns="http://www.w3.org/2000/svg" width="71.852" height="54.199" viewBox="0 0 71.852 54.199">
  <g id="Group_34" data-name="Group 34" transform="translate(0)">
    <rect id="Rectangle_11" data-name="Rectangle 11" width="14.979" height="0.732" transform="translate(27.267 30.762)" fill="#babcbe"/>
    <rect id="Rectangle_12" data-name="Rectangle 12" width="15.812" height="0.732" transform="translate(28.931 34.24)" fill="#babcbe"/>
    <rect id="Rectangle_13" data-name="Rectangle 13" width="14.355" height="0.916" transform="translate(32.049 37.536)" fill="#babcbe"/>
    <path id="Path_1083" data-name="Path 1083" d="M809.486,107.733s2.078,5.859-16.852,18.126c0,0-5.827,4.395-6.032,10.8l-.21,4.76a8.673,8.673,0,0,0,3.125,4.943,88.088,88.088,0,0,0,8.945,6.409s6.032,3.3,6.032,7.508c0,0,.829-7.873-1.874-10.072,0,0-1.454-1.831-8.11-6.225,0,0-6.242-4.028-7.281-6.226,0,0,1.453-3.112,9.774-8.422,0,0,14.773-6.409,12.485-21.606" transform="translate(-759.96 -106.084)" fill="#4ec2c9"/>
    <path id="Path_1084" data-name="Path 1084" d="M807.422,144.71s.415-3.661-5.617-8.79c0,0-12.485-8.056-13.313-9.338,0,0-4.991-3.844-3.742-14.465,0,0,.829,6.409,8.945,10.8,0,0,2.907,1.647,8.946,6.042,0,0,5.2,3.3,4.781,11.719Z" transform="translate(-760.811 -104.061)" fill="#2c2f73"/>
    <path id="Path_1085" data-name="Path 1085" d="M768.732,137.332c9.155,5.494,77.813-22.154,70.946-26.367-3.953-2.562-22.055,2.564-22.055,2.564a3.815,3.815,0,0,1-.415,1.465s14.149-3.479,17.477-1.465c6.446,3.845-53.47,26-60.962,21.241-2.907-1.831,16.023-10.621,16.023-10.621s-24.968,10.8-21.015,13.183" transform="translate(-768.308 -104.923)" fill="#babcbe"/>
    <path id="Path_1086" data-name="Path 1086" d="M789.533,109.9a3.552,3.552,0,0,1-3.742,3.48,3.743,3.743,0,0,1-3.954-3.48c0-1.831,1.874-3.3,3.954-3.3a3.525,3.525,0,0,1,3.742,3.3" transform="translate(-762.062 -106.605)" fill="#2c2f73"/>
  </g>
</svg>
