<svg xmlns="http://www.w3.org/2000/svg" xmlns:xlink="http://www.w3.org/1999/xlink" width="298" height="972" viewBox="0 0 298 972">
  <defs>
    <clipPath id="clip-path">
      <rect id="Rectangle_17202" data-name="Rectangle 17202" width="298" height="972" fill="#2c2f73"/>
    </clipPath>
  </defs>
  <g id="Mask_Group_1" data-name="Mask Group 1" clip-path="url(#clip-path)">
    <path id="Path_3708" data-name="Path 3708" d="M1138,922.991a858.379,858.379,0,0,0-4.772,90.356q0,19.407.88,38.821h.677q-.884-19.406-.883-38.821,0-41.915,4.1-83.667v-6.689m0-20.432a863.489,863.489,0,0,0-7.144,110.812q0,19.393.873,38.8h.677q-.876-19.4-.876-38.8A862.256,862.256,0,0,1,1138,907.989v-5.431m0-57.852a860.531,860.531,0,0,0-16.713,168.65q0,19.4.879,38.811h.677q-.882-19.4-.881-38.811A858.978,858.978,0,0,1,1138,848.248v-3.542m0-12.026a865,865,0,0,0-19.1,180.648q0,19.418.875,38.839h.677q-.876-19.418-.876-38.839A863.709,863.709,0,0,1,1138,836.005v-3.324m0-39.521a862.1,862.1,0,0,0-28.667,220.22q0,19.39.88,38.788h.677q-.88-19.39-.881-38.788A860.983,860.983,0,0,1,1138,795.894V793.16m0-9.424a866.642,866.642,0,0,0-31.04,229.635q0,19.4.872,38.8h.678q-.876-19.4-.876-38.8A865.412,865.412,0,0,1,1138,786.377v-2.641m0-31.695a863.643,863.643,0,0,0-40.613,261.337q0,19.39.877,38.789h.677q-.88-19.39-.881-38.789A862.449,862.449,0,0,1,1138,754.369v-2.327m0-8.082a867.97,867.97,0,0,0-42.99,269.412q0,19.4.873,38.8h.679q-.878-19.4-.877-38.8A866.811,866.811,0,0,1,1138,746.235v-2.276m0-26.972a864.879,864.879,0,0,0-52.563,296.393q0,19.39.879,38.788h.677q-.882-19.39-.88-38.788A863.684,863.684,0,0,1,1138,719.062v-2.075m0-7.229a869.11,869.11,0,0,0-54.938,303.611q0,19.4.873,38.8h.677q-.876-19.4-.875-38.8A867.877,867.877,0,0,1,1138,711.8v-2.038m0-23.716a866.21,866.21,0,0,0-64.51,327.336q0,19.39.879,38.789h.677q-.88-19.39-.881-38.789A864.931,864.931,0,0,1,1138,687.942v-1.9m0-6.626a870.36,870.36,0,0,0-66.887,333.955q0,19.4.873,38.8h.677q-.876-19.4-.875-38.8A869.112,869.112,0,0,1,1138,681.288v-1.872m0-21.156q-3.952,8.7-7.683,17.513a866.671,866.671,0,0,0-68.777,337.607q0,19.39.88,38.788h.676q-.88-19.39-.88-38.788A865.423,865.423,0,0,1,1130.9,676.235q3.449-8.16,7.1-16.223v-1.753m0-6.127q-5.045,10.929-9.753,22.039h0a870.533,870.533,0,0,0-69.081,339.2q0,19.4.872,38.8h.679q-.876-19.4-.876-38.8a869.353,869.353,0,0,1,68.995-338.737h0q4.422-10.465,9.165-20.766v-1.734m0-19.013c-6.93,14.008-13.525,28.218-19.632,42.654a866.689,866.689,0,0,0-68.765,337.635q0,19.379.876,38.76h.678q-.88-19.379-.88-38.76a865.485,865.485,0,0,1,68.677-337.173c5.931-14.027,12.328-27.84,19.046-41.467v-1.649m0-5.779c-7.683,15.354-14.983,30.949-21.7,46.831h0a870.6,870.6,0,0,0-69.085,339.2q0,19.4.875,38.8h.677q-.876-19.4-.876-38.8a869.353,869.353,0,0,1,68.995-338.739h0c6.542-15.473,13.644-30.68,21.114-45.655V627.34m0-17.62c-11.325,21.527-22.045,43.509-31.579,66.052a866.531,866.531,0,0,0-68.757,337.556q0,19.415.881,38.839h.678q-.884-19.418-.884-38.839a865.3,865.3,0,0,1,68.666-337.093c9.365-22.15,19.881-43.756,30.994-64.934V609.72m0-5.547c-12.076,22.771-23.524,46.059-33.649,70a870.53,870.53,0,0,0-69.082,339.2q0,19.4.873,38.8h.677q-.876-19.4-.877-38.8a869.4,869.4,0,0,1,68.995-338.737c9.957-23.544,21.2-46.461,33.063-68.885v-1.574m0-16.634c-15.708,28.568-30.687,57.886-43.528,88.233a866.472,866.472,0,0,0-68.755,337.55q0,19.418.881,38.845h.677q-.882-19.418-.883-38.845a865.306,865.306,0,0,1,68.665-337.088c12.674-29.955,27.443-58.919,42.943-87.159v-1.537m0-5.407c-16.448,29.749-32.182,60.32-45.6,92.039a870.6,870.6,0,0,0-69.084,339.2q0,19.4.873,38.8h.677q-.876-19.4-.875-38.8a869.354,869.354,0,0,1,68.993-338.739c13.247-31.324,28.769-61.543,45.011-90.968v-1.531m0-15.978c-20,35.292-39.41,71.649-55.476,109.618a866.505,866.505,0,0,0-68.755,337.556q0,19.415.881,38.839h.676q-.882-19.418-.881-38.839a865.3,865.3,0,0,1,68.665-337.093c15.9-37.575,35.091-73.593,54.891-108.573v-1.507m0-5.314c-20.707,36.431-40.91,74-57.544,113.331a870.553,870.553,0,0,0-69.085,339.2q0,19.4.873,38.8h.677q-.876-19.4-.874-38.8a869.367,869.367,0,0,1,68.993-338.739c16.467-38.939,36.449-76.165,56.96-112.286V560.84m0-15.565c-24.109,41.815-48.173,85.027-67.425,130.5a866.47,866.47,0,0,0-68.754,337.55q0,19.418.881,38.845h.677q-.884-19.418-.884-38.845a865.308,865.308,0,0,1,68.666-337.088c19.081-45.071,42.912-87.95,66.839-129.468v-1.493m0-5.276c-24.774,42.926-49.667,87.292-69.492,134.172a870.552,870.552,0,0,0-69.085,339.2q0,19.4.875,38.8h.677q-.876-19.4-.876-38.8a869.355,869.355,0,0,1,68.995-338.739c19.654-46.475,44.312-90.509,68.907-133.142V540m0-15.367c-.229.394-.457.787-.684,1.181-27.755,47.856-56.434,97.364-78.689,149.959a866.507,866.507,0,0,0-68.755,337.556q0,19.415.881,38.839h.677q-.884-19.418-.883-38.839a865.272,865.272,0,0,1,68.666-337.093c22.218-52.518,50.879-101.995,78.632-149.849l.154-.267v-1.487m0-5.244q-1.276,2.206-2.551,4.41h0c-27.8,47.959-56.562,97.57-78.892,150.374a870.549,870.549,0,0,0-69.085,339.2q0,19.4.874,38.8h.677q-.876-19.4-.876-38.8a869.368,869.368,0,0,1,68.995-338.739c22.3-52.726,51.034-102.3,78.836-150.265l-.265-.287.266.286q1.008-1.744,2.018-3.49v-1.487m0-15.42q-6.316,10.973-12.633,21.847c-27.752,47.854-56.433,97.362-78.688,149.957a866.423,866.423,0,0,0-68.754,337.55q0,19.418.88,38.845h.677q-.884-19.418-.884-38.845a865.306,865.306,0,0,1,68.666-337.088c22.218-52.518,50.88-101.995,78.632-149.849q6.04-10.421,12.1-20.926v-1.493m0-5.3q-7.243,12.626-14.5,25.125h0c-27.8,47.962-56.561,97.574-78.892,150.378a870.572,870.572,0,0,0-69.084,339.2q0,19.4.873,38.8h.677q-.876-19.4-.875-38.8A869.351,869.351,0,0,1,1045.2,674.632c22.3-52.726,51.033-102.3,78.836-150.265h0q6.973-12.051,13.967-24.2v-1.5m0-15.63c-8.132,14.4-16.38,28.632-24.581,42.777-27.754,47.854-56.434,97.362-78.689,149.957a866.528,866.528,0,0,0-68.754,337.556q0,19.415.881,38.839h.677q-.884-19.418-.884-38.839a865.294,865.294,0,0,1,68.665-337.093c22.221-52.518,50.88-101.995,78.632-149.849,8.021-13.835,16.091-27.759,24.053-41.841v-1.507m0-5.359c-8.735,15.536-17.621,30.88-26.445,46.114h0c-27.8,47.962-56.563,97.574-78.893,150.378a870.455,870.455,0,0,0-69.073,339.135q0,19.426.877,38.861h.676q-.878-19.429-.877-38.861a869.244,869.244,0,0,1,68.982-338.674c22.3-52.726,51.036-102.3,78.836-150.265h0c8.644-14.924,17.351-29.955,25.917-45.174V477.68m0-16.135c-11.918,21.79-24.285,43.131-36.53,64.271-27.752,47.854-56.433,97.4-78.689,149.957a866.988,866.988,0,0,0-68.751,337.6h0q0,19.4.88,38.8h.677q-.882-19.4-.881-38.8a865.723,865.723,0,0,1,68.662-337.136c22.22-52.485,50.88-101.995,78.631-149.849,12.059-20.819,24.243-41.843,36-63.3v-1.54m0-5.475c-12.483,22.986-25.5,45.467-38.394,67.724h0c-27.8,47.962-56.563,97.574-78.891,150.378a870.425,870.425,0,0,0-69.074,339.137h0q0,19.426.876,38.859h.679q-.88-19.426-.88-38.859A869.261,869.261,0,0,1,1021.3,674.632c22.3-52.726,51.034-102.3,78.835-150.265h0c12.7-21.932,25.539-44.1,37.866-66.749V456.07m0-16.854c-15.461,29.613-32.078,58.287-48.48,86.6-27.725,47.854-56.433,97.362-78.662,149.957a866.646,866.646,0,0,0-68.777,337.607q0,19.39.88,38.788h.677q-.882-19.39-.881-38.788a865.446,865.446,0,0,1,68.686-337.145c22.2-52.518,50.882-101.995,78.607-149.849,16.209-27.98,32.632-56.315,47.95-85.583v-1.587m0-5.674c-15.98,30.9-33.283,60.773-50.344,90.251h0c-27.8,47.962-56.56,97.574-78.866,150.378A870.587,870.587,0,0,0,939.7,1013.36q0,19.4.875,38.808h.677q-.876-19.4-.876-38.808a869.4,869.4,0,0,1,69-338.728c22.272-52.726,51.01-102.3,78.811-150.265h0c16.864-29.141,33.973-58.674,49.814-89.225v-1.6m0-17.922c-18.642,38.093-39.7,74.435-60.429,110.195-27.725,47.854-56.433,97.362-78.661,149.957a866.642,866.642,0,0,0-68.776,337.607q0,19.39.879,38.788h.677q-.882-19.39-.881-38.788A865.471,865.471,0,0,1,999.5,676.235c22.194-52.518,50.88-101.995,78.605-149.849,20.518-35.4,41.378-71.393,59.9-109.108V415.62m0-5.923c-19.085,39.5-40.874,77.109-62.293,114.1-27.8,47.962-56.56,97.574-78.863,150.378a870.525,870.525,0,0,0-69.085,339.2q0,19.4.873,38.8h.677q-.874-19.4-.875-38.8a869.354,869.354,0,0,1,68.993-338.739c22.271-52.726,51.008-102.3,78.809-150.265,21.207-36.624,42.793-73.88,61.763-112.994V409.7m0-19.544c-21.292,47.5-47.083,92.016-72.377,135.661-27.724,47.854-56.433,97.362-78.662,149.957a866.669,866.669,0,0,0-68.776,337.607q0,19.39.88,38.788h.676q-.88-19.39-.88-38.788a865.468,865.468,0,0,1,68.685-337.145c22.2-52.518,50.883-101.995,78.608-149.849,25.062-43.25,50.638-87.388,71.845-134.469v-1.763m0-6.289c-21.6,49.077-48.186,94.963-74.241,139.929-27.8,47.962-56.56,97.574-78.866,150.378a870.6,870.6,0,0,0-69.082,339.2q0,19.4.875,38.8h.677q-.876-19.4-.876-38.8a869.35,869.35,0,0,1,68.992-338.739c22.272-52.726,51.008-102.3,78.812-150.265C1090.112,479.8,1116.472,434.3,1138,385.652v-1.787m0-21.965c-23.124,58.293-54.084,111.73-84.324,163.916-27.727,47.854-56.433,97.4-78.661,149.957a866.611,866.611,0,0,0-68.777,337.606q0,19.39.879,38.789h.677q-.88-19.39-.881-38.789A865.462,865.462,0,0,1,975.6,676.235c22.2-52.485,50.882-101.995,78.607-149.849,29.983-51.744,60.7-104.75,83.795-162.558V361.9m0-6.914c-23.242,60.156-55.089,115.135-86.189,168.808-27.8,47.962-56.561,97.574-78.865,150.378a870.525,870.525,0,0,0-69.085,339.2q0,19.4.873,38.8h.677q-.876-19.4-.876-38.8a869.38,869.38,0,0,1,69-338.739c22.27-52.726,51.007-102.3,78.809-150.265,30.833-53.218,62.432-107.755,85.659-167.412v-1.97m0-25.883c-23.619,71.323-60.45,134.9-96.272,196.713-27.725,47.854-56.434,97.362-78.662,149.957a866.645,866.645,0,0,0-68.777,337.607q0,19.39.88,38.788h.677q-.882-19.39-.881-38.788A865.47,865.47,0,0,1,963.65,676.235c22.2-52.518,50.883-101.995,78.608-149.849,35.512-61.289,72.056-124.341,95.743-195.058V329.1m0-8.012c-23.378,73.689-61.293,139.118-98.136,202.7-27.8,47.962-56.536,97.574-78.866,150.378a870.573,870.573,0,0,0-69.082,339.2q0,19.4.873,38.8h.677q-.876-19.4-.875-38.8a869.351,869.351,0,0,1,68.992-338.739c22.3-52.726,51.008-102.3,78.811-150.265,36.52-63.034,74.135-127.92,97.607-200.971V321.09m0-33.469c-.185.761-.375,1.526-.562,2.287-21.75,87.64-65.4,162.991-107.659,235.908-27.725,47.854-56.433,97.362-78.662,149.957a866.66,866.66,0,0,0-68.774,337.606q0,19.39.879,38.789h.677q-.882-19.39-.88-38.789A865.435,865.435,0,0,1,951.7,676.235c22.2-52.518,50.881-101.995,78.607-149.849,42.2-72.83,85.859-148.164,107.692-235.871v-2.895m0-10.682q-1.355,5.957-2.835,11.924c-21.6,87.119-65.122,162.226-107.251,234.931-27.8,47.962-56.534,97.574-78.865,150.378a870.549,870.549,0,0,0-69.084,339.2q0,19.4.872,38.8h.678q-.876-19.4-.877-38.8a869.4,869.4,0,0,1,69-338.739c22.3-52.726,51.007-102.3,78.811-150.265,42.125-72.708,85.709-147.886,107.36-235.209q1.133-4.569,2.194-9.138v-3.081m0-52.326a609.926,609.926,0,0,1-12.51,65.3c-21.75,87.64-65.4,162.991-107.659,235.908-27.725,47.854-56.434,97.362-78.662,149.957a866.621,866.621,0,0,0-68.776,337.607q0,19.39.879,38.788h.677q-.88-19.39-.88-38.788a865.421,865.421,0,0,1,68.685-337.145c22.194-52.518,50.88-101.995,78.608-149.849,42.251-72.918,85.963-148.339,107.769-236.184A613.13,613.13,0,0,0,1138,229.56v-4.948m0-20.823a596.674,596.674,0,0,1-14.784,85.073c-21.6,87.119-65.122,162.226-107.248,234.931-27.8,47.962-56.537,97.574-78.868,150.378a870.544,870.544,0,0,0-69.082,339.2q0,19.4.873,38.8h.677q-.876-19.4-.876-38.8a869.4,869.4,0,0,1,68.993-338.739c22.3-52.726,51.008-102.3,78.812-150.265,42.124-72.708,85.707-147.886,107.359-235.209A600.722,600.722,0,0,0,1138,210.337V203.79M0,73.754v4.214a466.919,466.919,0,0,1,5.658,73.477A545.94,545.94,0,0,1,0,228.9v4.673a549.36,549.36,0,0,0,6.334-82.127A465.429,465.429,0,0,0,0,73.754M0,60.509v3.56a463.632,463.632,0,0,1,8.041,87.439A557.359,557.359,0,0,1,0,244.54v4.013a560.3,560.3,0,0,0,8.717-97.045A462.865,462.865,0,0,0,0,60.509m10.392-7.395-.323.131-.324.133a457.3,457.3,0,0,1,10.246,98.131c0,44.7-5.857,91.372-17.52,138.4Q1.279,294.712,0,299.47v2.655Q1.62,296.2,3.112,290.2C14.8,243.092,20.666,196.318,20.666,151.508A458.6,458.6,0,0,0,10.392,53.114m11.949,0-.323.131-.324.133A457.39,457.39,0,0,1,31.94,151.508c0,44.7-5.857,91.372-17.52,138.4C10.333,306.367,5.474,322.4,0,338.056v2.132C5.734,323.95,10.811,307.311,15.061,290.2c11.683-47.115,17.553-93.885,17.553-138.695A458.5,458.5,0,0,0,22.341,53.114m11.947,0-.322.131-.326.133a457.3,457.3,0,0,1,10.247,98.131c0,44.7-5.858,91.372-17.52,138.4A569.013,569.013,0,0,1,0,369.434v1.88A571.982,571.982,0,0,0,27.009,290.2c11.684-47.111,17.553-93.885,17.553-138.695A458.515,458.515,0,0,0,34.288,53.114m11.949,0-.323.131-.324.133a457.476,457.476,0,0,1,10.247,98.131c0,44.7-5.858,91.372-17.52,138.4C28.974,327.564,15.584,362.957,0,396.863V398.6C15.849,364.269,29.477,328.408,38.958,290.2,50.641,243.088,56.51,196.318,56.51,151.508A458.332,458.332,0,0,0,46.237,53.114m11.948,0-.323.131-.324.133a457.3,457.3,0,0,1,10.246,98.131c0,44.7-5.856,91.372-17.518,138.4C38.613,336.884,20.656,380.332,0,421.77v1.638C20.912,381.591,39.12,337.714,50.906,290.2c11.683-47.111,17.553-93.885,17.553-138.695A458.6,458.6,0,0,0,58.185,53.114m11.948,0-.322.131-.324.133a457.39,457.39,0,0,1,10.246,98.131c0,44.7-5.857,91.372-17.518,138.4C48.352,345.752,25.606,396.583,0,444.984v1.576C25.849,397.812,48.859,346.575,62.854,290.2c11.683-47.115,17.555-93.885,17.555-138.695A458.5,458.5,0,0,0,70.133,53.114m11.948,0-.322.131-.326.133A457.3,457.3,0,0,1,91.68,151.508c0,44.7-5.856,91.372-17.52,138.4C58.182,354.3,30.384,412.046,0,467.075V468.6C30.611,413.251,58.688,355.12,74.8,290.2c11.684-47.111,17.555-93.885,17.555-138.695A458.515,458.515,0,0,0,82.081,53.114m11.949,0-.323.131-.324.133a457.123,457.123,0,0,1,10.245,98.1c0,44.708-5.864,91.394-17.541,138.431C68.051,362.657,34.908,426.935,0,488.384v1.5C35.118,428.133,68.555,363.49,86.725,290.2,98.427,243.079,104.3,196.3,104.3,151.477A458.309,458.309,0,0,0,94.03,53.114m11.949,0-.324.131-.324.133a457.3,457.3,0,0,1,10.247,98.1c0,44.708-5.865,91.392-17.543,138.429C77.951,370.921,39.131,441.433,0,509.229v1.487C39.316,442.626,78.448,371.773,98.674,290.2c11.7-47.124,17.576-93.9,17.576-138.724a458.327,458.327,0,0,0-10.272-98.365m11.948,0-.323.131-.324.133a458.084,458.084,0,0,1,10.237,98.131c0,44.7-5.858,91.372-17.535,138.4C88.258,377.548,44.6,452.9,2.349,525.815L0,529.868v1.485q1.44-2.485,2.879-4.966C45.13,453.468,88.843,378.047,110.622,290.2c11.7-47.111,17.567-93.885,17.567-138.695a459.024,459.024,0,0,0-10.262-98.394m11.949,0-.324.131-.323.133a458.167,458.167,0,0,1,10.234,98.129c0,44.7-5.856,91.373-17.532,138.4C100.206,377.548,56.552,452.9,14.3,525.815Q7.173,538.11,0,550.561v1.493q7.415-12.917,14.827-25.667C57.078,453.468,100.792,378.047,122.571,290.2c11.7-47.115,17.566-93.885,17.566-138.7a459.191,459.191,0,0,0-10.261-98.392m11.949,0-.326.131-.323.133a458,458,0,0,1,10.235,98.131c0,44.7-5.857,91.372-17.533,138.4C112.154,377.548,68.5,452.9,26.246,525.815,17.514,540.878,8.689,556.106,0,571.546v1.515c8.856-15.761,17.866-31.3,26.776-46.674C69.027,453.468,112.74,378.047,134.518,290.2c11.7-47.111,17.57-93.885,17.57-138.695a459.282,459.282,0,0,0-10.262-98.394m11.947,0-.324.131-.323.133a458.251,458.251,0,0,1,10.235,98.129c0,44.7-5.856,91.373-17.532,138.4C124.1,377.548,80.448,452.9,38.193,525.815,25.431,547.858,12.453,570.244,0,593.119v1.546c12.612-23.207,25.775-45.915,38.723-68.279C80.975,453.468,124.688,378.047,146.467,290.2c11.7-47.115,17.566-93.885,17.566-138.7a459.021,459.021,0,0,0-10.261-98.392m11.925,0-.324.131-.324.133A457.6,457.6,0,0,1,175.3,151.56c0,44.684-5.856,91.34-17.529,138.348C136.051,377.548,92.4,452.9,50.142,525.815,33.217,555,15.948,584.8,0,615.539v1.6c16.085-31.087,33.551-61.23,50.673-90.749C92.923,453.468,136.636,378.047,158.415,290.2c11.694-47.095,17.564-93.848,17.564-138.643A458.981,458.981,0,0,0,165.7,53.114m11.948,0-.326.131-.322.133a457.313,457.313,0,0,1,10.246,98.134c0,44.7-5.857,91.372-17.52,138.4C148,377.548,104.345,452.9,62.09,525.815,40.837,562.462,19.039,600.083,0,639.313v1.673c19.15-39.608,41.157-77.592,62.62-114.6,42.251-72.918,85.965-148.339,107.744-236.184,11.683-47.111,17.555-93.881,17.555-138.691a458.61,458.61,0,0,0-10.274-98.4m11.948,0-.324.131-.323.133a457.3,457.3,0,0,1,10.247,98.129c0,44.7-5.858,91.373-17.521,138.4C159.946,377.548,116.293,452.9,74.039,525.815,48.182,570.4,21.519,616.422,0,665.037v1.787c21.588-49.031,48.479-95.453,74.569-140.438C116.82,453.468,160.532,378.047,182.312,290.2c11.683-47.115,17.555-93.887,17.555-138.7a458.412,458.412,0,0,0-10.274-98.392m11.948,0-.324.131-.323.133a457.39,457.39,0,0,1,10.246,98.131c0,44.7-5.857,91.372-17.518,138.4C171.87,377.548,128.241,452.9,85.986,525.815,58.236,573.669,29.553,623.178,7.3,675.773Q3.548,684.634,0,693.566V695.5q3.822-9.671,7.885-19.267C30.1,623.718,58.765,574.24,86.517,526.387c42.251-72.918,85.938-148.339,107.744-236.184,11.683-47.111,17.553-93.885,17.553-138.695A458.514,458.514,0,0,0,201.54,53.114m11.949,0-.324.131-.323.133a457.39,457.39,0,0,1,10.245,98.131c0,44.7-5.856,91.372-17.517,138.4-21.752,87.64-65.4,162.991-107.635,235.908C70.184,573.669,41.5,623.178,19.247,675.773Q8.846,700.387,0,725.453v2.132q9.082-25.908,19.834-51.349c22.22-52.518,50.88-101.995,78.631-149.849C140.691,453.468,184.4,378.047,206.209,290.2c11.683-47.115,17.553-93.885,17.553-138.695A458.589,458.589,0,0,0,213.49,53.114m11.948,0-.323.131-.324.133a457.3,457.3,0,0,1,10.246,98.131c0,44.7-5.857,91.372-17.52,138.4-21.751,87.64-65.4,162.991-107.633,235.908C82.132,573.669,53.45,623.178,31.2,675.773A876.667,876.667,0,0,0,0,761.8v2.414a875.538,875.538,0,0,1,31.78-87.983C54,623.718,82.663,574.24,110.413,526.387c42.226-72.918,85.938-148.339,107.744-236.184,11.684-47.111,17.555-93.885,17.555-138.695a458.6,458.6,0,0,0-10.274-98.394m11.948,0-.322.131-.324.133a457.392,457.392,0,0,1,10.245,98.131c0,44.7-5.856,91.372-17.517,138.4-21.752,87.64-65.406,162.991-107.635,235.908C94.08,573.669,65.4,623.178,43.144,675.773A874.821,874.821,0,0,0,0,805.007v2.882A873.589,873.589,0,0,1,43.73,676.235C65.95,623.718,94.61,574.24,122.362,526.387,164.588,453.468,208.3,378.047,230.106,290.2c11.683-47.115,17.552-93.885,17.552-138.695a458.333,458.333,0,0,0-10.273-98.394m11.948,0-.323.131-.324.133a457.3,457.3,0,0,1,10.247,98.131c0,44.7-5.858,91.372-17.52,138.4-21.751,87.64-65.4,162.991-107.635,235.908-27.749,47.854-56.457,97.362-78.686,149.957A872.281,872.281,0,0,0,0,860.716v3.9A871.074,871.074,0,0,1,55.677,676.235c22.2-52.518,50.882-101.995,78.632-149.849,42.228-72.918,85.938-148.339,107.744-236.184,11.684-47.111,17.555-93.885,17.555-138.695a458.514,458.514,0,0,0-10.276-98.394m11.949,0-.323.131-.324.133a457.477,457.477,0,0,1,10.247,98.131c0,44.7-5.858,91.372-17.52,138.4-21.751,87.64-65.4,162.991-107.635,235.908-27.751,47.854-56.459,97.362-78.688,149.957A868.577,868.577,0,0,0,0,959.048v12a866.859,866.859,0,0,1,67.627-294.81c22.193-52.518,50.88-101.995,78.631-149.849C188.487,453.468,232.2,378.047,254,290.2c11.683-47.115,17.553-93.885,17.553-138.695a458.417,458.417,0,0,0-10.273-98.394m11.947,0-.322.131-.324.133a457.306,457.306,0,0,1,10.247,98.131c0,44.7-5.858,91.372-17.52,138.4C243.559,377.548,199.9,452.9,157.677,525.815c-27.752,47.854-56.459,97.362-78.689,149.957A866.668,866.668,0,0,0,10.212,1013.38q0,19.39.88,38.788h.676q-.88-19.39-.88-38.788A865.446,865.446,0,0,1,79.573,676.235c22.2-52.518,50.883-101.995,78.632-149.849C200.433,453.468,244.144,378.047,265.95,290.2c11.686-47.111,17.555-93.885,17.555-138.695a458.516,458.516,0,0,0-10.276-98.394m11.951,0-.323.131-.324.133a457.392,457.392,0,0,1,10.246,98.131c0,44.7-5.857,91.372-17.52,138.4-21.751,87.64-65.4,162.991-107.659,235.908-27.727,47.854-56.433,97.362-78.662,149.957A866.644,866.644,0,0,0,22.161,1013.38q0,19.39.879,38.788h.677q-.882-19.39-.881-38.788A865.5,865.5,0,0,1,91.522,676.235c22.194-52.518,50.88-101.995,78.608-149.849C212.382,453.468,256.093,378.047,277.9,290.2c11.683-47.115,17.553-93.885,17.553-138.695a458.5,458.5,0,0,0-10.273-98.394m11.947,0-.323.131-.324.133a457.3,457.3,0,0,1,10.247,98.131c0,44.7-5.856,91.372-17.52,138.4-21.751,87.64-65.4,162.991-107.658,235.908-27.727,47.854-56.434,97.362-78.663,149.957A866.644,866.644,0,0,0,34.109,1013.38q0,19.39.879,38.788h.677q-.882-19.39-.88-38.788a865.423,865.423,0,0,1,68.686-337.145c22.194-52.518,50.88-101.995,78.605-149.849,42.253-72.918,85.964-148.339,107.77-236.184,11.684-47.111,17.555-93.885,17.555-138.695a458.6,458.6,0,0,0-10.276-98.394m11.949,0-.323.131-.323.133a457.209,457.209,0,0,1,10.245,98.1c0,44.708-5.865,91.394-17.543,138.431C279.4,377.548,235.751,452.9,193.5,525.815c-27.728,47.854-56.433,97.362-78.662,149.957A866.621,866.621,0,0,0,46.057,1013.38q0,19.39.879,38.788h.679q-.882-19.39-.881-38.788a865.424,865.424,0,0,1,68.688-337.145c22.193-52.518,50.879-101.995,78.605-149.849C236.28,453.468,279.99,378.047,301.77,290.2c11.7-47.124,17.578-93.907,17.578-138.726a458.4,458.4,0,0,0-10.273-98.363m11.948,0-.323.131-.324.133a457.994,457.994,0,0,1,10.234,98.129c0,44.7-5.853,91.373-17.53,138.4C291.353,377.548,247.7,452.9,205.445,525.815c-27.727,47.854-56.433,97.362-78.662,149.957a866.635,866.635,0,0,0-68.776,337.606q0,19.39.879,38.789h.677q-.88-19.39-.881-38.789a865.438,865.438,0,0,1,68.686-337.143c22.194-52.518,50.88-101.995,78.607-149.849C248.226,453.468,291.939,378.047,313.72,290.2c11.7-47.115,17.566-93.885,17.566-138.7a459.278,459.278,0,0,0-10.262-98.392m11.949,0-.323.131-.324.133A457.964,457.964,0,0,1,342.559,151.5c0,44.7-5.856,91.375-17.532,138.4C303.3,377.548,259.648,452.9,217.395,525.815c-27.727,47.854-56.434,97.362-78.662,149.957A866.622,866.622,0,0,0,69.954,1013.38q0,19.39.88,38.788h.677q-.882-19.39-.881-38.788a865.424,865.424,0,0,1,68.688-337.145c22.194-52.518,50.88-101.995,78.605-149.849,42.252-72.918,85.965-148.339,107.744-236.184,11.7-47.115,17.567-93.887,17.567-138.7a459.247,459.247,0,0,0-10.262-98.39m11.949,0-.324.131-.324.133a458.082,458.082,0,0,1,10.234,98.129c0,44.7-5.854,91.373-17.53,138.4C315.25,377.548,271.6,452.9,229.343,525.815c-27.728,47.854-56.433,97.362-78.663,149.957A866.659,866.659,0,0,0,81.9,1013.378q0,19.39.879,38.789h.677q-.88-19.39-.88-38.789a865.437,865.437,0,0,1,68.685-337.143c22.194-52.518,50.882-101.995,78.608-149.849,42.251-72.918,85.964-148.339,107.744-236.184,11.7-47.115,17.564-93.885,17.564-138.7a459.106,459.106,0,0,0-10.26-98.392m11.947,0-.322.131-.326.133A457.964,457.964,0,0,1,366.456,151.5c0,44.7-5.856,91.375-17.532,138.4C327.2,377.548,283.545,452.9,241.292,525.815c-27.728,47.854-56.436,97.362-78.663,149.957A866.645,866.645,0,0,0,93.851,1013.38q0,19.39.879,38.788h.677q-.88-19.39-.881-38.788a865.424,865.424,0,0,1,68.688-337.145c22.194-52.518,50.88-101.995,78.608-149.849,42.251-72.918,85.963-148.339,107.742-236.184,11.7-47.115,17.568-93.887,17.568-138.7a459.164,459.164,0,0,0-10.264-98.39m11.925,0-.324.131-.324.133A457.6,457.6,0,0,1,378.4,151.56c0,44.684-5.856,91.34-17.526,138.348-21.726,87.64-65.38,162.991-107.635,235.908-27.727,47.854-56.433,97.362-78.662,149.957A866.635,866.635,0,0,0,105.8,1013.378q0,19.39.879,38.789h.679q-.882-19.39-.881-38.789a865.461,865.461,0,0,1,68.685-337.143c22.2-52.518,50.88-101.995,78.608-149.849C296.02,453.468,339.733,378.047,361.512,290.2c11.694-47.095,17.563-93.848,17.563-138.643a458.98,458.98,0,0,0-10.283-98.446m11.948,0-.323.131-.324.133a457.563,457.563,0,0,1,10.256,98.179c0,44.684-5.857,91.342-17.529,138.352C351.1,377.548,307.442,452.9,265.187,525.815c-27.754,47.854-56.434,97.362-78.688,149.957a866.916,866.916,0,0,0-68.753,337.6q0,19.4.879,38.8h.677q-.88-19.4-.88-38.8a865.724,865.724,0,0,1,68.662-337.136c22.22-52.518,50.879-101.995,78.632-149.849C307.969,453.468,351.681,378.047,373.46,290.2c11.694-47.095,17.564-93.85,17.564-138.647a458.677,458.677,0,0,0-10.284-98.442m11.948,0-.324.131-.323.133a457.229,457.229,0,0,1,10.247,98.134c0,44.7-5.857,91.372-17.521,138.4-21.722,87.64-65.379,162.991-107.632,235.908-27.752,47.854-56.433,97.362-78.688,149.957a866.5,866.5,0,0,0-68.755,337.55q0,19.418.881,38.845h.677q-.882-19.418-.883-38.845a865.305,865.305,0,0,1,68.665-337.088c22.221-52.518,50.88-101.995,78.632-149.849C319.916,453.468,363.631,378.047,385.41,290.2c11.683-47.111,17.555-93.881,17.555-138.691a458.523,458.523,0,0,0-10.276-98.4m11.949,0-.324.131-.324.133a457.3,457.3,0,0,1,10.249,98.129c0,44.7-5.86,91.373-17.521,138.4-21.723,87.64-65.379,162.991-107.633,235.908-27.751,47.854-56.434,97.362-78.686,149.957a866.532,866.532,0,0,0-68.757,337.556q0,19.415.881,38.839h.679q-.884-19.418-.884-38.839a865.3,865.3,0,0,1,68.666-337.093c22.218-52.518,50.879-101.995,78.632-149.849,42.251-72.918,85.963-148.339,107.743-236.184,11.683-47.115,17.553-93.887,17.553-138.7a458.327,458.327,0,0,0-10.273-98.392m11.948,0-.324.131-.323.133a457.312,457.312,0,0,1,10.247,98.134c0,44.7-5.858,91.372-17.52,138.4-21.752,87.64-65.38,162.991-107.635,235.908-27.751,47.854-56.433,97.362-78.688,149.957a866.5,866.5,0,0,0-68.754,337.55q0,19.418.881,38.845h.677q-.884-19.418-.883-38.845A865.281,865.281,0,0,1,222.93,676.235c22.22-52.518,50.88-101.995,78.631-149.849C343.813,453.468,387.5,378.047,409.305,290.2c11.683-47.111,17.555-93.881,17.555-138.691a458.609,458.609,0,0,0-10.274-98.4m11.949,0-.324.131-.323.133a457.467,457.467,0,0,1,10.247,98.129c0,44.7-5.86,91.373-17.521,138.4C398.865,377.548,355.208,452.9,312.98,525.815c-27.752,47.854-56.434,97.362-78.688,149.957a866.529,866.529,0,0,0-68.754,337.556q0,19.415.88,38.839h.677q-.882-19.418-.883-38.839a865.319,865.319,0,0,1,68.665-337.093c22.22-52.518,50.882-101.995,78.632-149.849,42.225-72.918,85.938-148.339,107.743-236.184,11.683-47.115,17.555-93.887,17.555-138.7a458.413,458.413,0,0,0-10.273-98.392m11.947,0-.322.131-.324.133a457.4,457.4,0,0,1,10.246,98.134c0,44.7-5.857,91.372-17.518,138.4-21.752,87.64-65.406,162.991-107.635,235.908-27.751,47.854-56.433,97.362-78.688,149.957a866.5,866.5,0,0,0-68.754,337.55q0,19.418.881,38.845h.677q-.884-19.418-.884-38.845a865.305,865.305,0,0,1,68.665-337.088c22.221-52.518,50.88-101.995,78.632-149.849C367.684,453.468,411.4,378.047,433.2,290.2c11.683-47.111,17.555-93.881,17.555-138.691a458.523,458.523,0,0,0-10.276-98.4m11.951,0-.326.131-.322.133a457.473,457.473,0,0,1,10.246,98.129c0,44.7-5.86,91.373-17.521,138.4-21.749,87.64-65.4,162.991-107.632,235.908-27.752,47.854-56.433,97.362-78.688,149.957a866.669,866.669,0,0,0-68.765,337.635q0,19.379.876,38.76h.677q-.88-19.379-.88-38.76a865.533,865.533,0,0,1,68.677-337.173C281,623.718,309.655,574.24,337.407,526.387,379.634,453.468,423.346,378.047,445.15,290.2c11.684-47.115,17.556-93.887,17.556-138.7a458.584,458.584,0,0,0-10.274-98.392m11.947,0-.323.131-.324.133a457.312,457.312,0,0,1,10.247,98.134c0,44.7-5.858,91.372-17.52,138.4-21.751,87.64-65.4,162.991-107.635,235.908-27.75,47.854-56.457,97.362-78.686,149.957a866.719,866.719,0,0,0-68.766,337.635q0,19.379.879,38.76h.676q-.878-19.379-.879-38.76a865.483,865.483,0,0,1,68.676-337.173c22.2-52.518,50.881-101.995,78.631-149.849C391.581,453.468,435.293,378.047,457.1,290.2c11.686-47.111,17.556-93.881,17.556-138.691a458.611,458.611,0,0,0-10.276-98.4m11.949,0-.323.131-.324.133a457.3,457.3,0,0,1,10.247,98.129c0,44.7-5.86,91.373-17.521,138.4C446.657,377.548,403,452.9,360.773,525.815c-27.752,47.854-56.459,97.362-78.686,149.957A866.621,866.621,0,0,0,213.31,1013.38q0,19.39.879,38.788h.677q-.88-19.39-.881-38.788a865.5,865.5,0,0,1,68.686-337.145c22.2-52.518,50.881-101.995,78.634-149.849,42.225-72.918,85.938-148.339,107.742-236.184,11.686-47.115,17.557-93.887,17.557-138.7a458.58,458.58,0,0,0-10.276-98.392m11.948,0-.323.131-.324.133a457.315,457.315,0,0,1,10.246,98.134c0,44.7-5.857,91.372-17.52,138.4-21.749,87.64-65.4,162.991-107.633,235.908-27.751,47.854-56.459,97.362-78.688,149.957a866.669,866.669,0,0,0-68.776,337.607q0,19.39.88,38.788h.676q-.88-19.39-.88-38.788a865.47,865.47,0,0,1,68.685-337.145c22.2-52.518,50.883-101.995,78.632-149.849C415.479,453.468,459.189,378.047,481,290.2c11.686-47.111,17.555-93.881,17.555-138.691a458.524,458.524,0,0,0-10.274-98.4m11.949,0-.323.131-.324.133a457.391,457.391,0,0,1,10.246,98.131c0,44.7-5.857,91.372-17.52,138.4C470.553,377.548,426.9,452.9,384.67,525.815c-27.752,47.854-56.46,97.362-78.688,149.957a866.643,866.643,0,0,0-68.776,337.607q0,19.39.877,38.788h.679q-.882-19.39-.881-38.788a865.471,865.471,0,0,1,68.686-337.145c22.194-52.518,50.88-101.995,78.632-149.849,42.228-72.918,85.938-148.339,107.744-236.184,11.683-47.115,17.553-93.885,17.553-138.695a458.5,458.5,0,0,0-10.273-98.394m11.947,0-.323.131-.323.133a457.47,457.47,0,0,1,10.245,98.1c0,44.708-5.864,91.392-17.543,138.429C482.5,377.548,438.847,452.9,396.592,525.815c-27.725,47.854-56.433,97.362-78.662,149.957a866.645,866.645,0,0,0-68.777,337.607q0,19.39.88,38.788h.677q-.882-19.39-.881-38.788a865.425,865.425,0,0,1,68.688-337.145c22.194-52.518,50.88-101.995,78.605-149.849,42.253-72.918,85.964-148.339,107.744-236.184,11.7-47.124,17.576-93.9,17.576-138.724a458.342,458.342,0,0,0-10.272-98.365m11.949,0-.322.131-.326.133a457.125,457.125,0,0,1,10.245,98.1c0,44.708-5.864,91.394-17.544,138.431C494.45,377.548,450.8,452.9,408.542,525.815c-27.726,47.854-56.433,97.362-78.662,149.957A866.6,866.6,0,0,0,261.1,1013.38q0,19.39.877,38.788h.679q-.88-19.39-.881-38.788a865.447,865.447,0,0,1,68.686-337.145c22.194-52.518,50.88-101.995,78.607-149.849,42.253-72.918,85.964-148.339,107.744-236.184,11.7-47.124,17.578-93.907,17.578-138.726A458.4,458.4,0,0,0,524.12,53.114m11.948,0-.323.131-.324.133a457.992,457.992,0,0,1,10.234,98.129c0,44.7-5.854,91.373-17.532,138.4C506.4,377.548,462.744,452.9,420.491,525.815c-27.726,47.854-56.433,97.362-78.662,149.957A866.622,866.622,0,0,0,273.05,1013.38q0,19.39.88,38.788h.677q-.882-19.39-.881-38.788a865.424,865.424,0,0,1,68.688-337.145c22.194-52.518,50.88-101.995,78.605-149.849,42.252-72.918,85.965-148.339,107.744-236.184,11.7-47.115,17.567-93.885,17.567-138.7a459.28,459.28,0,0,0-10.262-98.392m11.949,0-.323.131-.324.133A457.966,457.966,0,0,1,557.6,151.5c0,44.7-5.856,91.375-17.532,138.4-21.726,87.64-65.38,162.991-107.632,235.908-27.729,47.854-56.434,97.362-78.665,149.957A866.668,866.668,0,0,0,285,1013.38q0,19.39.879,38.788h.677q-.88-19.39-.88-38.788a865.423,865.423,0,0,1,68.686-337.145c22.193-52.518,50.88-101.995,78.607-149.849,42.253-72.918,85.964-148.339,107.744-236.184,11.7-47.115,17.567-93.887,17.567-138.7a459.251,459.251,0,0,0-10.262-98.39m11.946,0-.322.131-.326.133a457.906,457.906,0,0,1,10.235,98.129c0,44.7-5.854,91.373-17.53,138.4C530.3,377.548,486.641,452.9,444.388,525.815c-27.728,47.854-56.433,97.362-78.663,149.957a866.645,866.645,0,0,0-68.777,337.607q0,19.39.879,38.788h.679q-.882-19.39-.883-38.788A865.473,865.473,0,0,1,366.31,676.235c22.194-52.518,50.88-101.995,78.608-149.849C487.168,453.468,530.88,378.047,552.662,290.2c11.7-47.115,17.566-93.885,17.566-138.7a459.19,459.19,0,0,0-10.264-98.392m11.949,0-.322.131-.326.133A457.876,457.876,0,0,1,581.5,151.5c0,44.7-5.856,91.375-17.532,138.4C542.243,377.548,498.59,452.9,456.336,525.815c-27.728,47.854-56.434,97.362-78.662,149.957A866.62,866.62,0,0,0,308.9,1013.38q0,19.39.879,38.788h.677q-.88-19.39-.88-38.788a865.423,865.423,0,0,1,68.686-337.145c22.194-52.518,50.879-101.995,78.607-149.849C499.118,453.468,542.83,378.047,564.609,290.2c11.7-47.115,17.568-93.887,17.568-138.7a459.164,459.164,0,0,0-10.264-98.39m11.924,0-.323.131-.324.133a457.6,457.6,0,0,1,10.255,98.182c0,44.684-5.857,91.34-17.526,138.348-21.726,87.64-65.38,162.991-107.635,235.908-27.727,47.854-56.433,97.362-78.662,149.957a866.635,866.635,0,0,0-68.776,337.606q0,19.39.879,38.789h.677q-.882-19.39-.88-38.789a865.436,865.436,0,0,1,68.685-337.143c22.2-52.518,50.88-101.995,78.607-149.849,42.252-72.918,85.964-148.339,107.744-236.184,11.694-47.095,17.563-93.848,17.563-138.643a458.894,458.894,0,0,0-10.284-98.446m11.948,0-.324.131-.323.133a457.477,457.477,0,0,1,10.247,98.131c0,44.7-5.857,91.372-17.521,138.4-21.722,87.64-65.376,162.991-107.631,235.908-27.753,47.854-56.434,97.362-78.688,149.957a866.487,866.487,0,0,0-68.757,337.556q0,19.415.881,38.839h.677q-.882-19.418-.883-38.839A865.289,865.289,0,0,1,402.13,676.235c22.22-52.518,50.879-101.995,78.632-149.849,42.252-72.918,85.964-148.339,107.743-236.184,11.683-47.111,17.553-93.885,17.553-138.695a458.429,458.429,0,0,0-10.274-98.394m11.949,0-.324.131-.324.133a457.262,457.262,0,0,1,10.255,98.167c0,44.688-5.856,91.355-17.526,138.363-21.725,87.64-65.38,162.991-107.635,235.908-27.751,47.854-56.433,97.362-78.686,149.957a866.472,866.472,0,0,0-68.755,337.55q0,19.418.881,38.845h.679q-.884-19.418-.884-38.845a865.28,865.28,0,0,1,68.665-337.088c22.221-52.518,50.88-101.995,78.632-149.849,42.251-72.918,85.963-148.339,107.744-236.184,11.694-47.095,17.562-93.861,17.562-138.658a458.62,458.62,0,0,0-10.283-98.431m11.948,0-.324.131-.323.133a457.559,457.559,0,0,1,10.247,98.131c0,44.7-5.858,91.372-17.52,138.4-21.749,87.64-65.377,162.991-107.634,235.908-27.752,47.854-56.434,97.362-78.686,149.957a866.512,866.512,0,0,0-68.757,337.556q0,19.415.881,38.839h.677q-.884-19.418-.883-38.839a865.264,865.264,0,0,1,68.666-337.093c22.218-52.518,50.879-101.995,78.632-149.849C546.911,453.468,590.6,378.047,612.4,290.2c11.683-47.111,17.553-93.885,17.553-138.695a458.519,458.519,0,0,0-10.273-98.394m11.949,0-.324.131-.323.133a457.312,457.312,0,0,1,10.247,98.134c0,44.7-5.858,91.372-17.52,138.4-21.751,87.64-65.4,162.991-107.635,235.908-27.752,47.854-56.433,97.362-78.688,149.957a866.52,866.52,0,0,0-68.754,337.55q0,19.418.881,38.845h.677q-.884-19.418-.883-38.845a865.3,865.3,0,0,1,68.663-337.088c22.221-52.518,50.882-101.995,78.632-149.849,42.228-72.918,85.938-148.339,107.744-236.184,11.683-47.111,17.556-93.881,17.556-138.691a458.609,458.609,0,0,0-10.276-98.4m11.949,0-.324.131-.324.133a457.023,457.023,0,0,1,10.247,98.114c0,44.7-5.858,91.388-17.52,138.416C613.91,377.548,570.253,452.9,528.026,525.815c-27.752,47.854-56.434,97.362-78.686,149.957a866.487,866.487,0,0,0-68.757,337.556q0,19.415.881,38.839h.677q-.884-19.418-.884-38.839a865.288,865.288,0,0,1,68.666-337.093c22.22-52.518,50.879-101.995,78.632-149.849C570.781,453.468,614.5,378.047,636.3,290.2c11.683-47.115,17.555-93.9,17.555-138.711A458.248,458.248,0,0,0,643.58,53.114m11.948,0-.326.131-.322.133a457.4,457.4,0,0,1,10.246,98.134c0,44.7-5.857,91.372-17.52,138.4-21.751,87.64-65.4,162.991-107.633,235.908-27.751,47.854-56.433,97.362-78.688,149.957a866.5,866.5,0,0,0-68.754,337.55q0,19.418.881,38.845h.677q-.884-19.418-.883-38.845a865.28,865.28,0,0,1,68.663-337.088c22.221-52.518,50.88-101.995,78.632-149.849C582.73,453.468,626.442,378.047,648.248,290.2c11.683-47.111,17.555-93.881,17.555-138.691a458.613,458.613,0,0,0-10.274-98.4m11.949,0-.326.131-.322.133a457.384,457.384,0,0,1,10.246,98.129c0,44.7-5.86,91.373-17.521,138.4-21.749,87.64-65.4,162.991-107.632,235.908-27.752,47.854-56.46,97.362-78.688,149.957a866.7,866.7,0,0,0-68.767,337.633q0,19.379.879,38.762h.676q-.878-19.379-.879-38.762A865.457,865.457,0,0,1,473.82,676.235c22.194-52.518,50.88-101.995,78.632-149.849,42.225-72.918,85.938-148.339,107.742-236.184,11.686-47.115,17.556-93.887,17.556-138.7a458.5,458.5,0,0,0-10.273-98.392m11.947,0-.323.131-.324.133a457.312,457.312,0,0,1,10.247,98.134c0,44.7-5.857,91.372-17.52,138.4-21.751,87.64-65.4,162.991-107.635,235.908-27.749,47.854-56.457,97.362-78.686,149.957a866.694,866.694,0,0,0-68.766,337.635q0,19.379.877,38.76h.677q-.88-19.379-.879-38.76a865.506,865.506,0,0,1,68.674-337.173c22.2-52.518,50.882-101.995,78.634-149.849,42.225-72.918,85.938-148.339,107.744-236.184,11.683-47.111,17.555-93.881,17.555-138.691a458.609,458.609,0,0,0-10.276-98.4m11.949,0-.324.131-.323.133a457.193,457.193,0,0,1,10.247,98.114c0,44.7-5.86,91.388-17.522,138.416-21.748,87.64-65.4,162.991-107.632,235.908-27.752,47.854-56.46,97.362-78.686,149.957a866.645,866.645,0,0,0-68.778,337.607q0,19.39.88,38.788h.677q-.88-19.39-.881-38.788a865.45,865.45,0,0,1,68.688-337.145c22.194-52.518,50.88-101.995,78.632-149.849,42.225-72.918,85.938-148.339,107.742-236.184,11.686-47.115,17.556-93.9,17.556-138.711a458.247,458.247,0,0,0-10.274-98.378m11.948,0-.323.131-.324.133a457.313,457.313,0,0,1,10.246,98.134c0,44.7-5.857,91.372-17.52,138.4C673.649,377.548,630,452.9,587.766,525.815c-27.749,47.854-56.459,97.4-78.688,149.957A866.669,866.669,0,0,0,440.3,1013.38q0,19.39.879,38.788h.677q-.88-19.39-.88-38.788a865.445,865.445,0,0,1,68.685-337.145c22.2-52.485,50.883-101.995,78.632-149.849C630.524,453.468,674.235,378.047,696.04,290.2c11.684-47.111,17.555-93.881,17.555-138.691a458.613,458.613,0,0,0-10.274-98.4m11.949,0-.323.131-.326.133a457.216,457.216,0,0,1,10.247,98.129c0,44.7-5.858,91.373-17.521,138.4-21.749,87.64-65.4,162.991-107.659,235.908-27.725,47.854-56.433,97.362-78.661,149.957a866.62,866.62,0,0,0-68.776,337.607q0,19.39.879,38.788h.677q-.882-19.39-.883-38.788a865.5,865.5,0,0,1,68.688-337.145c22.194-52.518,50.881-101.995,78.605-149.849,42.253-72.918,85.965-148.339,107.77-236.184,11.684-47.115,17.556-93.887,17.556-138.7A458.586,458.586,0,0,0,715.27,53.114m11.946,0-.322.131-.326.133a457.3,457.3,0,0,1,10.245,98.1c0,44.708-5.862,91.392-17.543,138.429-21.725,87.64-65.379,162.991-107.633,235.908-27.725,47.854-56.433,97.362-78.662,149.957A866.644,866.644,0,0,0,464.2,1013.38q0,19.39.879,38.788h.677q-.88-19.39-.881-38.788a865.448,865.448,0,0,1,68.686-337.145c22.2-52.518,50.882-101.995,78.607-149.849,42.253-72.918,85.964-148.339,107.744-236.184,11.7-47.124,17.576-93.9,17.576-138.724a458.334,458.334,0,0,0-10.272-98.365m11.949,0-.323.131-.324.133a456.85,456.85,0,0,1,10.245,98.085c0,44.714-5.864,91.408-17.544,138.446C709.5,377.548,665.84,452.9,623.587,525.815c-27.727,47.854-56.434,97.4-78.662,149.957a866.6,866.6,0,0,0-68.776,337.607q0,19.39.877,38.788h.679q-.882-19.39-.883-38.788A865.5,865.5,0,0,1,545.51,676.235c22.194-52.485,50.88-101.995,78.605-149.849C666.367,453.468,710.081,378.047,731.86,290.2c11.7-47.124,17.579-93.918,17.579-138.741a458.143,458.143,0,0,0-10.273-98.348m11.948,0-.323.131-.324.133A457.992,457.992,0,0,1,760.7,151.506c0,44.7-5.854,91.373-17.532,138.4-21.726,87.64-65.38,162.991-107.633,235.908-27.727,47.854-56.433,97.362-78.663,149.957A866.668,866.668,0,0,0,488.1,1013.38q0,19.39.88,38.788h.676q-.88-19.39-.88-38.788a865.423,865.423,0,0,1,68.686-337.145c22.194-52.518,50.882-101.995,78.607-149.849,42.253-72.918,85.964-148.339,107.744-236.184,11.7-47.115,17.567-93.885,17.567-138.7a459.276,459.276,0,0,0-10.262-98.392m11.948,0-.322.131-.324.133A457.966,457.966,0,0,1,772.649,151.5c0,44.7-5.856,91.375-17.532,138.4-21.726,87.64-65.38,162.991-107.633,235.908-27.728,47.854-56.433,97.362-78.663,149.957a866.643,866.643,0,0,0-68.776,337.607q0,19.39.879,38.788h.677q-.88-19.39-.88-38.788a865.445,865.445,0,0,1,68.685-337.145c22.194-52.518,50.88-101.995,78.608-149.849,42.252-72.918,85.963-148.339,107.744-236.184,11.7-47.115,17.567-93.887,17.567-138.7a459.156,459.156,0,0,0-10.264-98.39m11.948,0-.322.131-.326.133A457.914,457.914,0,0,1,784.6,151.506c0,44.7-5.854,91.373-17.532,138.4-21.726,87.64-65.379,162.991-107.634,235.908C631.705,573.669,603,623.178,580.77,675.773a866.621,866.621,0,0,0-68.777,337.607q0,19.39.879,38.788h.677q-.88-19.39-.88-38.788a865.423,865.423,0,0,1,68.686-337.145c22.194-52.518,50.88-101.995,78.607-149.849C702.214,453.468,745.926,378.047,767.7,290.2c11.7-47.115,17.568-93.885,17.568-138.7a459.19,459.19,0,0,0-10.264-98.392m11.924,0-.323.131-.324.133a457.318,457.318,0,0,1,10.255,98.166c0,44.688-5.857,91.355-17.526,138.365-21.726,87.64-65.38,162.991-107.633,235.908-27.728,47.854-56.434,97.4-78.663,149.957a866.644,866.644,0,0,0-68.776,337.607q0,19.39.879,38.788h.677q-.882-19.39-.88-38.788A865.423,865.423,0,0,1,593.3,676.235C615.5,623.751,644.183,574.24,671.91,526.387c42.253-72.918,85.964-148.339,107.744-236.184,11.694-47.095,17.563-93.863,17.563-138.66a458.419,458.419,0,0,0-10.284-98.429m11.948,0-.322.131-.326.133A457.686,457.686,0,0,1,808.49,151.56c0,44.684-5.857,91.34-17.526,138.348-21.726,87.64-65.38,162.991-107.635,235.908-27.752,47.854-56.433,97.4-78.688,149.957a866.506,866.506,0,0,0-68.757,337.556q0,19.415.883,38.839h.676q-.882-19.418-.883-38.839a865.3,865.3,0,0,1,68.666-337.093c22.22-52.485,50.88-101.995,78.632-149.849C726.111,453.468,769.823,378.047,791.6,290.2c11.692-47.095,17.562-93.848,17.562-138.643a458.724,458.724,0,0,0-10.284-98.446m11.949,0-.323.131-.326.133a457.474,457.474,0,0,1,10.255,98.179c0,44.688-5.856,91.342-17.526,138.352-21.725,87.64-65.377,162.991-107.632,235.908-27.753,47.854-56.436,97.362-78.689,149.957a866.447,866.447,0,0,0-68.754,337.55q0,19.418.88,38.845h.679q-.884-19.418-.884-38.845a865.281,865.281,0,0,1,68.665-337.088c22.221-52.518,50.88-101.995,78.634-149.849,42.251-72.918,85.964-148.339,107.743-236.184,11.694-47.095,17.561-93.85,17.561-138.647A458.771,458.771,0,0,0,810.83,53.114m11.948,0-.323.131-.324.133a457.306,457.306,0,0,1,10.247,98.131c0,44.7-5.858,91.372-17.52,138.4-21.749,87.64-65.377,162.991-107.633,235.908-27.751,47.854-56.432,97.362-78.686,149.957a866.532,866.532,0,0,0-68.757,337.556q0,19.415.883,38.839h.676q-.884-19.418-.883-38.839a865.271,865.271,0,0,1,68.666-337.093C651.344,623.718,680,574.24,707.756,526.387,750.007,453.468,793.694,378.047,815.5,290.2c11.686-47.115,17.556-93.885,17.556-138.695a458.59,458.59,0,0,0-10.276-98.394m11.949,0-.324.131-.323.133a457.312,457.312,0,0,1,10.247,98.116c0,44.7-5.858,91.386-17.52,138.414-21.75,87.64-65.379,162.991-107.632,235.908-27.755,47.854-56.436,97.362-78.69,149.957a866.52,866.52,0,0,0-68.754,337.55q0,19.418.881,38.845h.677q-.884-19.418-.883-38.845A865.3,865.3,0,0,1,641.07,676.235c22.221-52.518,50.881-101.995,78.635-149.849,42.251-72.918,85.938-148.339,107.742-236.184C839.13,243.092,845,196.307,845,151.493a458.164,458.164,0,0,0-10.273-98.379m11.949,0-.324.131-.325.133a457.223,457.223,0,0,1,10.247,98.134c0,44.7-5.857,91.372-17.52,138.4-21.749,87.64-65.4,162.991-107.633,235.908-27.752,47.854-56.433,97.4-78.686,149.957a866.508,866.508,0,0,0-68.757,337.556q0,19.415.881,38.839h.677q-.882-19.418-.884-38.839a865.344,865.344,0,0,1,68.666-337.093C675.24,623.751,703.9,574.24,731.653,526.387c42.225-72.918,85.938-148.339,107.742-236.184,11.686-47.111,17.556-93.881,17.556-138.691a458.609,458.609,0,0,0-10.274-98.4m11.948,0-.326.131-.322.133a457.571,457.571,0,0,1,10.246,98.131c0,44.7-5.857,91.372-17.52,138.4-21.748,87.64-65.4,162.991-107.632,235.908-27.754,47.854-56.434,97.362-78.689,149.957a866.5,866.5,0,0,0-68.754,337.55q0,19.418.881,38.845h.677q-.884-19.418-.883-38.845a865.279,865.279,0,0,1,68.663-337.088c22.221-52.518,50.88-101.995,78.634-149.849,42.225-72.918,85.94-148.339,107.743-236.184,11.683-47.111,17.553-93.885,17.553-138.695a458.515,458.515,0,0,0-10.273-98.394m11.949,0-.326.131-.322.133a457.313,457.313,0,0,1,10.246,98.134c0,44.7-5.857,91.372-17.52,138.4-21.751,87.64-65.4,162.991-107.634,235.908-27.752,47.854-56.433,97.362-78.688,149.957a866.5,866.5,0,0,0-68.754,337.55q0,19.418.88,38.845h.677q-.882-19.418-.881-38.845a865.3,865.3,0,0,1,68.663-337.088c22.221-52.518,50.88-101.995,78.632-149.849,42.226-72.918,85.938-148.339,107.744-236.184,11.683-47.111,17.555-93.881,17.555-138.691a458.609,458.609,0,0,0-10.274-98.4m11.946,0-.323.131-.324.133a457.138,457.138,0,0,1,10.247,98.116c0,44.7-5.857,91.386-17.52,138.414-21.749,87.64-65.4,162.991-107.632,235.908-27.752,47.854-56.436,97.362-78.688,149.957a866.46,866.46,0,0,0-68.757,337.552q0,19.418.881,38.843h.677q-.882-19.418-.883-38.843a865.26,865.26,0,0,1,68.666-337.09c22.218-52.518,50.879-101.995,78.632-149.849,42.224-72.918,85.938-148.339,107.743-236.184,11.683-47.111,17.555-93.9,17.555-138.709A458.333,458.333,0,0,0,882.52,53.114m11.949,0-.324.131-.323.133a457.312,457.312,0,0,1,10.247,98.134c0,44.7-5.858,91.372-17.52,138.4-21.751,87.64-65.4,162.991-107.635,235.908-27.75,47.854-56.457,97.4-78.686,149.957a866.594,866.594,0,0,0-68.776,337.607q0,19.39.877,38.788h.679q-.882-19.39-.881-38.788a865.423,865.423,0,0,1,68.686-337.145c22.2-52.485,50.88-101.995,78.632-149.849C821.671,453.468,865.384,378.047,887.19,290.2c11.683-47.111,17.553-93.881,17.553-138.691a458.528,458.528,0,0,0-10.274-98.4m11.948,0-.323.131-.324.133a457.3,457.3,0,0,1,10.246,98.131c0,44.7-5.857,91.372-17.52,138.4-21.748,87.64-65.4,162.991-107.632,235.908-27.751,47.854-56.459,97.362-78.688,149.957A866.635,866.635,0,0,0,643.4,1013.378q0,19.39.88,38.789h.676q-.88-19.39-.88-38.789a865.391,865.391,0,0,1,68.688-337.143c22.193-52.518,50.88-101.995,78.631-149.849,42.226-72.918,85.94-148.339,107.743-236.184,11.684-47.111,17.555-93.885,17.555-138.695a458.6,458.6,0,0,0-10.274-98.394m11.949,0-.323.131-.326.133a457.227,457.227,0,0,1,10.247,98.134c0,44.7-5.857,91.372-17.518,138.4-21.752,87.64-65.406,162.991-107.635,235.908-27.751,47.854-56.457,97.362-78.688,149.957a866.669,866.669,0,0,0-68.776,337.607q0,19.39.879,38.788h.677q-.88-19.39-.88-38.788a865.444,865.444,0,0,1,68.685-337.145c22.2-52.518,50.882-101.995,78.632-149.849C845.568,453.468,889.28,378.047,911.086,290.2c11.683-47.111,17.555-93.881,17.555-138.691a458.609,458.609,0,0,0-10.274-98.4m11.948,0-.322.131-.324.133a457.2,457.2,0,0,1,10.246,98.114c0,44.7-5.86,91.388-17.521,138.416-21.749,87.64-65.4,162.991-107.659,235.908-27.725,47.854-56.433,97.362-78.661,149.957A866.645,866.645,0,0,0,667.3,1013.38q0,19.39.879,38.788h.679q-.882-19.39-.883-38.788a865.5,865.5,0,0,1,68.688-337.145c22.194-52.518,50.88-101.995,78.605-149.849,42.253-72.918,85.965-148.339,107.77-236.184,11.684-47.115,17.556-93.9,17.556-138.711a458.251,458.251,0,0,0-10.276-98.378m11.948,0-.323.131-.324.133a457.382,457.382,0,0,1,10.245,98.1c0,44.708-5.864,91.392-17.541,138.429-21.726,87.64-65.38,162.991-107.635,235.908-27.725,47.854-56.433,97.4-78.662,149.957a866.645,866.645,0,0,0-68.776,337.607q0,19.39.879,38.788h.677q-.882-19.39-.88-38.788a865.447,865.447,0,0,1,68.685-337.145c22.2-52.485,50.882-101.995,78.607-149.849,42.253-72.918,85.964-148.339,107.744-236.184,11.7-47.124,17.576-93.9,17.576-138.724a458.346,458.346,0,0,0-10.272-98.365m11.949,0-.323.131-.325.133A458.155,458.155,0,0,1,963.8,151.506c0,44.7-5.856,91.373-17.533,138.4-21.724,87.64-65.38,162.991-107.634,235.908C810.9,573.669,782.2,623.178,759.97,675.773a866.621,866.621,0,0,0-68.777,337.607q0,19.39.879,38.788h.677q-.88-19.39-.881-38.788a865.5,865.5,0,0,1,68.686-337.145c22.2-52.518,50.882-101.995,78.607-149.849,42.253-72.918,85.965-148.339,107.744-236.184,11.7-47.115,17.567-93.887,17.567-138.7a459.184,459.184,0,0,0-10.261-98.392m11.948,0-.323.131-.324.133a457.737,457.737,0,0,1,10.234,98.114c0,44.7-5.856,91.388-17.532,138.416-21.726,87.64-65.38,162.991-107.633,235.908-27.727,47.854-56.433,97.362-78.663,149.957a866.668,866.668,0,0,0-68.776,337.607q0,19.39.88,38.788h.676q-.88-19.39-.88-38.788A865.471,865.471,0,0,1,772.5,676.235c22.2-52.518,50.883-101.995,78.608-149.849,42.252-72.918,85.963-148.339,107.744-236.184,11.7-47.115,17.567-93.9,17.567-138.711a459.026,459.026,0,0,0-10.262-98.378m11.949,0-.323.131-.324.133a457.888,457.888,0,0,1,10.234,98.114c0,44.7-5.856,91.388-17.533,138.416-21.724,87.64-65.38,162.991-107.633,235.908-27.727,47.854-56.433,97.362-78.662,149.957A866.644,866.644,0,0,0,715.09,1013.38q0,19.39.879,38.788h.677q-.882-19.39-.881-38.788a865.494,865.494,0,0,1,68.686-337.145c22.194-52.518,50.88-101.995,78.607-149.849C905.31,453.468,949.022,378.047,970.8,290.2c11.7-47.115,17.568-93.9,17.568-138.711a458.945,458.945,0,0,0-10.261-98.378m11.946,0-.323.131-.323.133a458.082,458.082,0,0,1,10.233,98.129c0,44.7-5.853,91.373-17.531,138.4-21.726,87.64-65.38,162.991-107.634,235.908-27.726,47.854-56.434,97.4-78.663,149.957a866.644,866.644,0,0,0-68.776,337.607q0,19.39.879,38.788h.677q-.882-19.39-.88-38.788A865.424,865.424,0,0,1,796.4,676.235c22.194-52.485,50.88-101.995,78.605-149.849C917.259,453.468,960.97,378.047,982.75,290.2c11.7-47.115,17.567-93.885,17.567-138.7a459.2,459.2,0,0,0-10.262-98.392m11.949,0-.323.131-.324.133a458.158,458.158,0,0,1,10.235,98.129c0,44.7-5.856,91.373-17.532,138.4-21.726,87.64-65.38,162.991-107.635,235.908-27.752,47.854-56.433,97.362-78.662,149.957a866.618,866.618,0,0,0-68.777,337.607q0,19.39.879,38.788h.679q-.882-19.39-.881-38.788A865.422,865.422,0,0,1,808.35,676.235c22.192-52.518,50.853-101.995,78.605-149.849C929.207,453.468,972.919,378.047,994.7,290.2c11.7-47.115,17.566-93.887,17.566-138.7A459.2,459.2,0,0,0,1002,53.114m11.922,0-.322.131-.324.133a457.515,457.515,0,0,1,10.255,98.167c0,44.688-5.856,91.355-17.529,138.363-21.725,87.64-65.377,162.991-107.632,235.908-27.754,47.854-56.433,97.362-78.662,149.957a866.622,866.622,0,0,0-68.778,337.607q0,19.39.88,38.788h.677q-.88-19.39-.881-38.788A865.449,865.449,0,0,1,820.3,676.235c22.194-52.518,50.853-101.995,78.605-149.849,42.252-72.918,85.965-148.339,107.744-236.184,11.694-47.095,17.561-93.861,17.561-138.658a458.446,458.446,0,0,0-10.282-98.431m11.948,0-.323.131-.324.133a457.31,457.31,0,0,1,10.247,98.131c0,44.7-5.856,91.372-17.52,138.4-21.724,87.64-65.377,162.991-107.634,235.908-27.751,47.854-56.432,97.4-78.686,149.957a866.446,866.446,0,0,0-68.754,337.55q0,19.418.88,38.845h.677q-.884-19.418-.884-38.845A865.307,865.307,0,0,1,832.22,676.235c22.221-52.485,50.88-101.995,78.632-149.849C953.1,453.468,996.817,378.047,1018.6,290.2c11.683-47.111,17.553-93.885,17.553-138.695a458.514,458.514,0,0,0-10.276-98.394m11.949,0-.323.131-.324.133a457.3,457.3,0,0,1,10.247,98.131c0,44.7-5.858,91.372-17.52,138.4-21.751,87.64-65.379,162.991-107.632,235.908-27.755,47.854-56.433,97.362-78.688,149.957a866.508,866.508,0,0,0-68.757,337.556q0,19.415.881,38.839h.677q-.884-19.418-.883-38.839a865.272,865.272,0,0,1,68.666-337.093c22.218-52.518,50.879-101.995,78.632-149.849,42.251-72.918,85.938-148.339,107.742-236.184,11.686-47.115,17.556-93.885,17.556-138.695a458.594,458.594,0,0,0-10.276-98.394m11.949,0-.324.131-.324.133a457.481,457.481,0,0,1,10.247,98.131c0,44.7-5.857,91.372-17.52,138.4-21.749,87.64-65.4,162.991-107.631,235.908-27.755,47.854-56.436,97.362-78.689,149.957a866.447,866.447,0,0,0-68.755,337.55q0,19.418.88,38.845h.679q-.882-19.418-.883-38.845a865.3,865.3,0,0,1,68.663-337.088C878.336,623.718,907,574.24,934.75,526.387c42.224-72.918,85.937-148.339,107.74-236.184,11.686-47.111,17.555-93.885,17.555-138.695a458.523,458.523,0,0,0-10.273-98.394m11.948,0-.323.131-.324.133a457.049,457.049,0,0,1,10.246,98.114c0,44.706-5.857,91.388-17.52,138.416-21.748,87.64-65.4,162.991-107.632,235.908-27.752,47.854-56.433,97.362-78.688,149.957a866.53,866.53,0,0,0-68.755,337.556q0,19.415.881,38.839h.677q-.882-19.418-.883-38.839a865.273,865.273,0,0,1,68.666-337.093c22.22-52.518,50.88-101.995,78.631-149.849,42.227-72.918,85.94-148.339,107.743-236.184,11.686-47.115,17.555-93.9,17.555-138.711a458.325,458.325,0,0,0-10.275-98.378" transform="translate(0 -80.169)" fill="#fff" opacity="0.09"/>
  </g>
</svg>
